<svg width="32" height="32" viewBox="0 0 32 32" fill="none" xmlns="http://www.w3.org/2000/svg">
<path d="M16.9951 12.4826C16.9991 12.4759 17.0036 12.4759 17.0091 12.4826L17.0009 12.4893L16.9951 12.4826Z" fill="#0124DD"/>
<path d="M9.64343 14.9418C9.73591 14.6621 9.82359 14.3978 9.90935 14.1357C9.91991 14.1037 9.94135 14.0963 9.96919 14.0912C10.4322 14.0048 10.8972 13.9312 11.3701 13.9546C11.7039 13.9703 12.0249 14.0384 12.3122 14.2176C12.702 14.4602 12.8802 14.8256 12.9055 15.2736C12.9202 15.5312 12.8783 15.7856 12.8415 16.0378C12.765 16.5517 12.6863 17.065 12.6124 17.5789C12.6104 17.6004 12.6026 17.6211 12.5899 17.6386C12.5771 17.6561 12.5599 17.6698 12.5401 17.6784C12.2386 17.8439 11.9116 17.9344 11.5756 17.9895C11.1598 18.0615 10.7356 18.0723 10.3167 18.0215C9.96759 17.9776 9.64215 17.8691 9.38871 17.6125C9.27872 17.4999 9.19334 17.3656 9.13799 17.2183C9.08263 17.0709 9.05851 16.9136 9.06714 16.7565C9.07578 16.5993 9.11698 16.4456 9.18815 16.3052C9.25932 16.1648 9.35889 16.0407 9.48055 15.9408C9.74039 15.7271 10.0476 15.6208 10.3711 15.552C10.861 15.4483 11.3554 15.4624 11.8501 15.5002C11.9119 15.5047 11.9253 15.4858 11.9282 15.4307C11.9503 15.0448 11.7186 14.7677 11.3119 14.6931C11.0297 14.6413 10.7525 14.6861 10.4754 14.7315C10.1927 14.7781 9.91435 14.8484 9.64343 14.9418ZM11.374 16.1059C11.1979 16.1048 11.022 16.1177 10.8479 16.1447C10.6597 16.1767 10.477 16.2263 10.3253 16.3511C10.1538 16.4922 10.1081 16.6816 10.142 16.8903C10.174 17.0807 10.3071 17.185 10.4796 17.2464C10.5586 17.2742 10.6409 17.292 10.7244 17.2992C11.0329 17.329 11.3324 17.2752 11.63 17.2016C11.6502 17.199 11.6687 17.189 11.682 17.1736C11.6953 17.1582 11.7026 17.1385 11.7023 17.1181C11.7429 16.8157 11.7833 16.513 11.8281 16.2112C11.8357 16.1591 11.8185 16.1491 11.7749 16.1408C11.6424 16.1189 11.5083 16.1073 11.374 16.1059Z" fill="#114185"/>
<path d="M23.9298 17.0491C23.8786 17.2047 23.8338 17.3439 23.7865 17.4831C23.7487 17.5973 23.7084 17.7106 23.6725 17.8258C23.6691 17.8434 23.6605 17.8596 23.6479 17.8724C23.6352 17.8851 23.6191 17.8939 23.6015 17.8975C23.1119 18.028 22.6159 18.0987 22.1103 18.0351C21.5343 17.9624 21.0582 17.7151 20.7663 17.1867C20.5868 16.8597 20.5298 16.5035 20.5542 16.1365C20.6006 15.4383 20.8914 14.8594 21.4322 14.4111C21.7609 14.1384 22.1442 13.9983 22.566 13.9567C22.8569 13.9282 23.1461 13.9336 23.43 14.0127C24.0079 14.1727 24.3932 14.6223 24.4671 15.2175C24.5097 15.5595 24.4671 15.8955 24.4117 16.2319C24.405 16.2738 24.3839 16.2751 24.3519 16.2751C24.1967 16.2751 24.0412 16.2751 23.886 16.2751C23.1393 16.2751 22.3927 16.2751 21.646 16.2751C21.5858 16.2751 21.5682 16.2898 21.5673 16.3515C21.5589 16.8546 21.8367 17.1867 22.3311 17.2715C22.6965 17.3355 23.0521 17.2802 23.4069 17.2027C23.5844 17.163 23.7591 17.1117 23.9298 17.0491ZM22.6242 15.6219H23.341C23.5599 15.6219 23.5599 15.6219 23.5673 15.4031C23.5823 14.9599 23.3113 14.6709 22.8706 14.6463C22.3436 14.6165 21.8466 14.9983 21.7186 15.5647C21.7081 15.6117 21.7186 15.6232 21.7666 15.6229C22.0517 15.6207 22.3362 15.6219 22.6242 15.6219Z" fill="#114185"/>
<path d="M25.7697 18.0479C25.2998 18.0448 24.8334 17.967 24.3879 17.8175C24.3434 17.8022 24.3316 17.7894 24.3476 17.7411C24.4208 17.5194 24.4909 17.2967 24.5578 17.0729C24.5745 17.0179 24.594 17.0223 24.6382 17.0435C25.066 17.2527 25.5493 17.3209 26.0183 17.238C26.1284 17.2213 26.2328 17.1785 26.323 17.1132C26.3647 17.0843 26.3994 17.0464 26.4245 17.0023C26.4496 16.9582 26.4646 16.909 26.4682 16.8584C26.4718 16.8078 26.464 16.757 26.4454 16.7098C26.4268 16.6625 26.3979 16.6201 26.3607 16.5855C26.2794 16.5102 26.1881 16.4465 26.0894 16.3961C25.8446 16.2591 25.5956 16.1308 25.363 15.9721C24.738 15.5443 24.8142 14.6537 25.4295 14.263C25.7022 14.0899 26.0007 14.0031 26.3178 13.9702C26.8465 13.9155 27.3575 14.006 27.8612 14.1577C27.9073 14.1715 27.9191 14.1839 27.9015 14.2329C27.8257 14.4431 27.7524 14.6547 27.6836 14.8675C27.6654 14.9235 27.6436 14.9193 27.6004 14.8995C27.2854 14.7508 26.9404 14.6764 26.5921 14.6819C26.4231 14.686 26.2583 14.7139 26.1153 14.8137C26.0545 14.8525 26.0081 14.9101 25.9832 14.9778C25.9584 15.0455 25.9564 15.1195 25.9777 15.1884C26.0052 15.2657 26.0573 15.3319 26.1258 15.3769C26.274 15.4883 26.4436 15.5635 26.6058 15.6524C26.8043 15.7561 26.9938 15.8762 27.1722 16.0115C27.6996 16.43 27.6462 17.2275 27.1402 17.6326C26.8138 17.8934 26.4318 17.9977 26.0254 18.0348C25.9233 18.0438 25.8218 18.0454 25.7697 18.0479Z" fill="#114185"/>
<path d="M29.2215 18.0482C28.7579 18.0437 28.2978 17.9667 27.858 17.82C27.8071 17.8031 27.794 17.788 27.8129 17.7343C27.8852 17.5173 27.9537 17.2991 28.0203 17.0802C28.0363 17.0271 28.0523 17.0194 28.1041 17.0444C28.5302 17.2517 29.0106 17.32 29.4775 17.2396C29.5776 17.2239 29.6735 17.1882 29.7595 17.1346C29.9716 16.9992 29.9975 16.7506 29.8183 16.5765C29.7432 16.509 29.6596 16.4514 29.5697 16.4053C29.3137 16.26 29.0478 16.1301 28.8068 15.9573C28.251 15.5557 28.3201 14.829 28.6599 14.4642C28.8891 14.2188 29.1783 14.0869 29.4993 14.0162C29.9252 13.9202 30.3508 13.9432 30.7761 14.022C30.9553 14.054 31.1307 14.1026 31.306 14.15C31.3643 14.1663 31.3854 14.1836 31.3607 14.2501C31.2868 14.4508 31.2196 14.6536 31.1543 14.8581C31.1361 14.9141 31.1179 14.9221 31.0628 14.8981C30.752 14.7522 30.4123 14.6779 30.0689 14.6808C29.9089 14.6837 29.7543 14.7074 29.6148 14.7912C29.4827 14.8703 29.4158 14.9852 29.4356 15.1432C29.4481 15.2437 29.5086 15.3138 29.5847 15.3714C29.7447 15.4927 29.9287 15.5727 30.1028 15.6687C30.3012 15.7784 30.4971 15.8927 30.6702 16.0402C31.1553 16.4562 31.1006 17.2274 30.6139 17.6242C30.3524 17.8376 30.0491 17.9484 29.7217 18.0056C29.5563 18.0325 29.3891 18.0467 29.2215 18.0482Z" fill="#114185"/>
<path d="M16.5447 17.106C16.5284 17.202 16.4871 17.2881 16.4567 17.3786C16.3988 17.5511 16.337 17.722 16.2798 17.8948C16.2755 17.9121 16.266 17.9276 16.2524 17.9391C16.2388 17.9506 16.222 17.9575 16.2042 17.9588C15.8202 18.0228 15.4321 18.0634 15.042 18.034C14.4599 17.9902 13.9607 17.778 13.6177 17.282C13.3758 16.9326 13.2903 16.5354 13.3118 16.1172C13.3476 15.4196 13.6433 14.8487 14.1882 14.4116C14.5006 14.1614 14.8679 14.0385 15.2593 13.9873C15.7437 13.9186 16.237 13.9481 16.7098 14.074C16.8001 14.0986 16.8871 14.1332 16.9758 14.162C17.0078 14.1722 17.0161 14.186 17.0042 14.2209C16.9287 14.4417 16.8538 14.6631 16.7831 14.8855C16.7674 14.9345 16.7454 14.9246 16.7137 14.9121C16.4877 14.8194 16.2485 14.7634 16.0049 14.746C15.4778 14.7162 15.0196 14.8612 14.6906 15.2999C14.3825 15.7111 14.3348 16.394 14.6647 16.8068C14.8698 17.0628 15.1406 17.1985 15.4618 17.2359C15.8084 17.2762 16.1434 17.2094 16.4743 17.1143C16.4954 17.1082 16.5169 17.1041 16.5383 17.099L16.5447 17.106Z" fill="#114185"/>
<path d="M20.1927 17.1013C20.1191 17.3131 20.0346 17.5227 19.9741 17.739C19.9303 17.8968 19.8564 17.9717 19.6842 17.9889C19.2042 18.0369 18.7242 18.0907 18.2442 17.9637C17.4893 17.763 16.9962 17.1608 16.9552 16.3781C16.9104 15.5275 17.2362 14.8478 17.9213 14.3451C18.2093 14.1342 18.5453 14.0344 18.896 13.9886C19.3804 13.9202 19.8735 13.9496 20.3463 14.075C20.434 14.099 20.5181 14.1349 20.6055 14.1601C20.6512 14.1736 20.6525 14.1944 20.6375 14.2344C20.5642 14.4485 20.4916 14.6625 20.4234 14.8782C20.4071 14.9297 20.3876 14.9278 20.3456 14.9118C20.0103 14.7838 19.6672 14.7144 19.3053 14.7518C18.6906 14.8177 18.2228 15.2241 18.1047 15.8222C18.0196 16.2539 18.0976 16.6488 18.4416 16.9544C18.7159 17.1976 19.0496 17.2654 19.4052 17.2446C19.656 17.2281 19.9038 17.1808 20.1431 17.1038C20.1575 17.1013 20.1703 17.0894 20.1927 17.1013Z" fill="#114185"/>
<path d="M8.00115 16.2206L4.01491 12.2344V12.8462L7.38931 16.2206L7.39059 16.2219L4.46771 19.1448L4.46419 19.1413L1.54323 16.2206L1.54067 16.2181L2.97459 14.7841H2.35219L0.916992 16.2193L0.918272 16.2206L4.46291 19.7653L4.46419 19.764L8.00435 16.2238L8.00115 16.2206Z" fill="#FE6309"/>
<path d="M4.01394 13.2676V13.8794L6.35666 16.2221L4.4693 18.1095L2.58034 16.2209L2.57778 16.2183L4.0117 14.7844H3.3893L1.9541 16.2196L1.95538 16.2209L4.15666 18.4221L4.4645 18.73L4.77746 18.4173L6.97042 16.2241L4.01394 13.2676Z" fill="#FE6309"/>
<path d="M5.93655 16.221L4.76759 15.0508L4.45655 14.7397L4.15063 15.0457L2.97559 16.2197L4.15127 17.3954L4.45911 17.7033L4.77143 17.3906L5.93975 16.2242L5.93655 16.221ZM4.46455 17.085L3.60055 16.221L3.59799 16.2185L4.45975 15.3567L5.32375 16.2207L4.46455 17.085Z" fill="#FE6309"/>
</svg>
