<svg width="126" height="30" viewBox="0 0 126 30" fill="none" xmlns="http://www.w3.org/2000/svg">
<path d="M66.918 1.15035C66.9333 1.12436 66.951 1.12436 66.9723 1.15035L66.9404 1.17633L66.918 1.15035Z" fill="#0124DD"/>
<path d="M37.9712 10.8331C38.3353 9.73182 38.6806 8.69106 39.0182 7.65912C39.0598 7.53312 39.1442 7.50414 39.2539 7.48398C41.0771 7.14378 42.9079 6.85398 44.7701 6.94596C46.0843 7.0077 47.3481 7.27608 48.4796 7.98168C50.0143 8.93676 50.7161 10.3757 50.8156 12.1397C50.8736 13.154 50.7085 14.1557 50.5636 15.1486C50.2625 17.1721 49.9525 19.1931 49.6615 21.2167C49.6535 21.3016 49.6229 21.3827 49.5728 21.4517C49.5227 21.5206 49.455 21.5748 49.3767 21.6086C48.1898 22.26 46.9021 22.6166 45.5791 22.8333C43.9418 23.117 42.2718 23.1594 40.6222 22.9593C39.2476 22.7867 37.9661 22.3595 36.9682 21.349C36.5352 20.9056 36.199 20.377 35.981 19.7967C35.763 19.2165 35.668 18.5973 35.702 17.9784C35.736 17.3595 35.8983 16.7544 36.1785 16.2016C36.4587 15.6487 36.8508 15.1601 37.3298 14.7668C38.353 13.9251 39.5626 13.5068 40.8364 13.2359C42.7655 12.8276 44.7122 12.8831 46.6601 13.0318C46.9033 13.0494 46.9562 12.9751 46.9676 12.7583C47.0545 11.2388 46.1423 10.1476 44.5408 9.85404C43.4295 9.64992 42.3383 9.82632 41.2472 10.0052C40.1338 10.1884 39.0379 10.4654 37.9712 10.8331ZM44.7853 15.4169C44.0918 15.4124 43.3991 15.4634 42.7138 15.5694C41.9729 15.6954 41.2535 15.8907 40.6562 16.3821C39.9809 16.9377 39.8007 17.6837 39.9343 18.5052C40.0603 19.2549 40.5844 19.6656 41.2636 19.9076C41.5749 20.0171 41.8987 20.0869 42.2275 20.1155C43.4421 20.2326 44.6215 20.021 45.7933 19.7312C45.8727 19.7207 45.9456 19.6814 45.9981 19.6208C46.0506 19.5602 46.079 19.4825 46.078 19.4023C46.238 18.2116 46.3968 17.0196 46.5732 15.8315C46.6034 15.6261 46.5354 15.587 46.364 15.5543C45.8421 15.4681 45.3143 15.4222 44.7853 15.4169Z" fill="#114185"/>
<path d="M94.2228 19.1317C94.0212 19.744 93.8448 20.2921 93.6583 20.8402C93.5096 21.29 93.3509 21.7361 93.2098 22.1897C93.1962 22.2591 93.1625 22.323 93.1127 22.3732C93.0629 22.4234 92.9993 22.4578 92.93 22.4719C91.0022 22.986 89.0493 23.2645 87.0585 23.0137C84.7905 22.7277 82.9156 21.7537 81.7665 19.6735C81.0596 18.3857 80.8354 16.9834 80.9311 15.5381C81.1138 12.7888 82.2592 10.5095 84.3886 8.74423C85.6826 7.67071 87.192 7.11883 88.8527 6.95503C89.998 6.84289 91.1371 6.86431 92.2547 7.17553C94.5302 7.80553 96.0473 9.57583 96.3383 11.9194C96.5059 13.2664 96.3383 14.5894 96.1203 15.9136C96.0939 16.0787 96.0107 16.0837 95.8847 16.0837C95.2736 16.0837 94.6613 16.0837 94.0502 16.0837C91.1102 16.0837 88.1702 16.0837 85.2302 16.0837C84.9933 16.0837 84.924 16.1417 84.9203 16.3849C84.8875 18.3656 85.9812 19.6735 87.9279 20.0074C89.3668 20.2594 90.7666 20.0414 92.164 19.7365C92.8628 19.5802 93.5505 19.3782 94.2228 19.1317ZM89.082 13.5121H91.9044C92.7662 13.5121 92.7662 13.5121 92.7952 12.6502C92.8544 10.9051 91.7872 9.76735 90.0522 9.67033C87.977 9.55315 86.0202 11.0563 85.5162 13.2865C85.4747 13.4717 85.5162 13.5171 85.7052 13.5158C86.8279 13.507 87.948 13.5121 89.082 13.5121Z" fill="#114185"/>
<path d="M101.468 23.0643C99.6178 23.052 97.7813 22.7458 96.0273 22.1571C95.8521 22.0966 95.8055 22.0462 95.8685 21.8559C96.1566 20.9832 96.4326 20.1062 96.6963 19.2251C96.7619 19.0084 96.8387 19.026 97.0126 19.1091C98.6973 19.9332 100.6 20.2015 102.447 19.8752C102.88 19.8092 103.291 19.6408 103.646 19.3838C103.811 19.27 103.947 19.1207 104.046 18.9471C104.145 18.7735 104.204 18.5799 104.218 18.3806C104.233 18.1812 104.202 17.9812 104.129 17.7953C104.056 17.6093 103.942 17.4422 103.795 17.3061C103.475 17.0096 103.115 16.7586 102.727 16.5602C101.763 16.0209 100.783 15.5156 99.8665 14.8907C97.4057 13.206 97.7056 9.69947 100.129 8.16101C101.202 7.47935 102.378 7.13789 103.626 7.00811C105.708 6.79265 107.72 7.14922 109.703 7.74647C109.885 7.80065 109.931 7.84979 109.862 8.04257C109.563 8.87039 109.275 9.70324 109.004 10.5411C108.932 10.7616 108.847 10.7453 108.676 10.6671C107.436 10.0818 106.078 9.78871 104.706 9.81035C104.041 9.82673 103.392 9.93635 102.829 10.3295C102.589 10.4821 102.407 10.7092 102.309 10.9757C102.211 11.2423 102.203 11.5336 102.287 11.8049C102.395 12.1092 102.6 12.3698 102.87 12.5471C103.454 12.9855 104.122 13.2816 104.76 13.6319C105.542 14.04 106.288 14.5129 106.991 15.0456C109.067 16.6937 108.857 19.8337 106.865 21.4288C105.579 22.4557 104.075 22.8665 102.475 23.0126C102.073 23.0479 101.673 23.0542 101.468 23.0643Z" fill="#114185"/>
<path d="M115.06 23.0638C113.235 23.0462 111.423 22.7431 109.691 22.1655C109.491 22.0987 109.439 22.0395 109.514 21.8278C109.799 20.9735 110.068 20.1142 110.33 19.2523C110.393 19.0432 110.456 19.0129 110.66 19.1112C112.338 19.9276 114.23 20.1965 116.068 19.8798C116.462 19.818 116.84 19.6774 117.178 19.4665C118.014 18.9336 118.116 17.9545 117.41 17.2691C117.114 17.0032 116.785 16.7766 116.431 16.595C115.423 16.023 114.376 15.5114 113.427 14.831C111.239 13.2497 111.511 10.3882 112.849 8.95183C113.751 7.98541 114.89 7.46629 116.154 7.18783C117.831 6.80983 119.507 6.90055 121.181 7.21051C121.887 7.33651 122.577 7.52803 123.268 7.71451C123.497 7.77877 123.58 7.84681 123.483 8.10889C123.192 8.89891 122.928 9.69775 122.671 10.5029C122.599 10.7234 122.527 10.7549 122.31 10.6604C121.086 10.0857 119.749 9.79331 118.397 9.80485C117.767 9.81619 117.158 9.90944 116.609 10.2396C116.088 10.5508 115.825 11.0031 115.903 11.6256C115.952 12.0212 116.191 12.2971 116.49 12.5239C117.12 13.0015 117.845 13.3165 118.53 13.6945C119.312 14.1267 120.083 14.5765 120.764 15.1573C122.675 16.7953 122.459 19.8319 120.543 21.3943C119.513 22.2348 118.319 22.6707 117.03 22.8963C116.378 23.0021 115.72 23.0581 115.06 23.0638Z" fill="#114185"/>
<path d="M65.1446 19.3542C65.0803 19.7322 64.9178 20.0712 64.7981 20.4278C64.57 21.1069 64.3268 21.7797 64.1013 22.4601C64.0847 22.5282 64.047 22.5892 63.9936 22.6345C63.9402 22.6798 63.8738 22.7069 63.8039 22.7121C62.292 22.9641 60.7636 23.1242 59.2276 23.0082C56.9357 22.8356 54.9701 22.0002 53.6194 20.0472C52.6669 18.6713 52.3304 17.1077 52.4149 15.4608C52.556 12.714 53.7202 10.4662 55.866 8.74503C57.0957 7.75971 58.5422 7.27587 60.0832 7.07427C61.9907 6.80391 63.933 6.92003 65.7947 7.41573C66.1501 7.51275 66.4928 7.64883 66.8418 7.76223C66.9678 7.80255 67.0006 7.85673 66.9539 7.99407C66.6566 8.86347 66.3617 9.73539 66.0833 10.6111C66.0215 10.8039 65.9346 10.7648 65.8099 10.7157C64.9202 10.3509 63.9781 10.1301 63.019 10.0617C60.9438 9.94455 59.1394 10.5153 57.8442 12.2428C56.6308 13.8619 56.4431 16.5507 57.7421 18.1761C58.5498 19.1841 59.6157 19.7184 60.8808 19.8658C62.2453 20.0246 63.5645 19.7612 64.8674 19.387C64.9505 19.3631 65.035 19.3467 65.1194 19.3265L65.1446 19.3542Z" fill="#114185"/>
<path d="M79.5076 19.3367C79.2178 20.1708 78.8851 20.9961 78.647 21.8479C78.4744 22.469 78.1833 22.7639 77.5054 22.8319C75.6154 23.0209 73.7254 23.2326 71.8354 22.7324C68.8631 21.9424 66.9214 19.5711 66.7601 16.4891C66.5837 13.14 67.8664 10.4638 70.5641 8.4843C71.6981 7.65396 73.0211 7.26084 74.402 7.08066C76.3091 6.81119 78.2508 6.92687 80.1124 7.42086C80.4576 7.51536 80.789 7.65648 81.133 7.75602C81.3132 7.80894 81.3182 7.89084 81.259 8.04834C80.9704 8.89128 80.6844 9.73422 80.416 10.5835C80.3518 10.7863 80.2749 10.7788 80.1098 10.7158C78.7894 10.2118 77.4386 9.93834 76.0136 10.0858C73.5931 10.3453 71.751 11.9455 71.2861 14.3005C70.9509 16.0002 71.2583 17.555 72.6128 18.7584C73.6927 19.716 75.0068 19.9831 76.4067 19.9012C77.3943 19.8361 78.3701 19.6499 79.3123 19.3468C79.369 19.3367 79.4194 19.2901 79.5076 19.3367Z" fill="#114185"/>
<path d="M31.5042 15.8696L15.8084 0.173828V2.58295L29.0951 15.8696L29.1001 15.8747L17.5913 27.3835L17.5774 27.3697L6.07617 15.8696L6.06609 15.8596L11.7122 10.2135H9.26145L3.61035 15.8646L3.61539 15.8696L17.5724 29.8267L17.5774 29.8216L31.5168 15.8822L31.5042 15.8696Z" fill="#FE6309"/>
<path d="M15.805 4.24121V6.65033L25.0294 15.8748L17.5979 23.3063L10.1602 15.8697L10.1501 15.8597L15.7961 10.2136H13.3454L7.69434 15.8647L7.69938 15.8697L16.3669 24.5373L17.579 25.7494L18.8113 24.5184L27.4461 15.8823L15.805 4.24121Z" fill="#FE6309"/>
<path d="M23.3756 15.8692L18.7728 11.2613L17.5481 10.0366L16.3435 11.2412L11.7168 15.8641L16.346 20.4934L17.5582 21.7055L18.7879 20.4745L23.3882 15.8818L23.3756 15.8692ZM17.5796 19.2712L14.1776 15.8692L14.1675 15.8591L17.5607 12.4659L20.9627 15.8679L17.5796 19.2712Z" fill="#FE6309"/>
</svg>
