<svg width="16" height="16" viewBox="0 0 16 16" fill="none" xmlns="http://www.w3.org/2000/svg">
<path d="M8 15.75C3.71979 15.75 0.25 12.2802 0.25 8C0.25 3.71979 3.71979 0.25 8 0.25C12.2802 0.25 15.75 3.71979 15.75 8C15.75 12.2802 12.2802 15.75 8 15.75Z" fill="#EBF1FC" stroke="#BDD2F4" stroke-width="0.5"/>
<path d="M8 14.6667C4.318 14.6667 1.33333 11.682 1.33333 8.00004C1.33333 4.31804 4.318 1.33337 8 1.33337C11.682 1.33337 14.6667 4.31804 14.6667 8.00004C14.6667 11.682 11.682 14.6667 8 14.6667ZM7.33533 10.6667L12.0487 5.95271L11.106 5.01004L7.33533 8.78137L5.44933 6.89537L4.50667 7.83804L7.33533 10.6667Z" fill="#3977DE"/>
</svg>
