<svg width="32" height="32" viewBox="0 0 32 32" fill="none" xmlns="http://www.w3.org/2000/svg">
<path d="M31.4239 0.576172H0.543945V31.4562H31.4239V0.576172Z" fill="#162D4C"/>
<path d="M14.0322 5.19976V5.18408H23.3443V5.2004L14.0322 5.19976Z" fill="#E4B935"/>
<path d="M14.033 5.19971H23.345C23.2746 5.53827 23.2055 5.87715 23.1335 6.21539C22.8579 7.50968 22.5814 8.80355 22.304 10.097C22.192 10.6227 22.08 11.1488 21.9668 11.6739C21.9524 11.7379 21.9588 11.7607 22.0308 11.7616C22.2868 11.7655 22.5428 11.7616 22.7988 11.7517C22.924 11.7443 23.0496 11.7524 23.1728 11.776C23.3968 11.8234 23.4592 11.985 23.3252 12.1728C23.2502 12.2706 23.1527 12.3487 23.041 12.4007C22.7885 12.5309 22.5152 12.5866 22.2372 12.6227C22.1001 12.6438 21.9617 12.6545 21.8231 12.6547C21.7693 12.6547 21.7556 12.6797 21.7466 12.7229C21.6613 13.1282 21.5752 13.5344 21.4884 13.9415L20.6983 17.6669C20.6823 17.7424 20.6663 17.8176 20.6512 17.8938C20.6436 17.9367 20.6282 17.9626 20.5792 17.9536C20.5659 17.9523 20.5525 17.9523 20.5392 17.9536H11.4279C11.3178 17.9536 11.3181 17.9536 11.3418 17.841C11.7979 15.6931 12.2538 13.5453 12.7095 11.3975C12.8112 10.9183 12.9133 10.4394 13.0157 9.96067C13.0246 9.93296 13.0228 9.90293 13.0106 9.87651C12.8746 9.60739 12.8314 9.31523 12.8029 9.02019C12.7303 8.27011 12.9047 7.55363 13.1092 6.84259C13.1684 6.63779 13.3911 6.51171 13.634 6.53923C13.7232 6.54915 13.7488 6.52483 13.7655 6.44035C13.8464 6.03587 13.9351 5.63299 14.0215 5.22947C14.0244 5.21922 14.0283 5.20926 14.033 5.19971ZM17.201 11.8237C17.2248 11.8211 17.2489 11.8211 17.2727 11.8237C17.5652 11.8903 17.7149 11.7175 17.8333 11.4919C17.8468 11.4659 17.8605 11.4397 17.872 11.4131C17.9543 11.2259 17.954 11.2256 17.8026 11.0931C17.7926 11.0838 17.7819 11.0752 17.7706 11.0675C17.7044 11.0272 17.7047 10.984 17.7453 10.9181C17.8712 10.7133 18.0552 10.5506 18.2739 10.4507C18.4925 10.3508 18.7359 10.3182 18.9732 10.3571C19.0543 10.3681 19.1308 10.4014 19.1943 10.4531C19.4023 10.6199 19.6173 10.777 19.8368 10.9287C20.0388 11.072 20.2495 11.2025 20.4679 11.3194C20.5488 11.3616 20.5533 11.3597 20.546 11.2727C20.5319 11.1082 20.5156 10.9438 20.497 10.7795C20.4557 10.4103 20.344 10.0701 20.1079 9.77347C19.9386 9.56099 19.7776 9.34179 19.6048 9.13187C19.588 9.11379 19.5756 9.09212 19.5684 9.06849C19.5613 9.04486 19.5596 9.01991 19.5636 8.99555C19.602 8.69283 19.6026 8.69091 19.4138 8.45155C18.9978 7.92419 18.5037 7.47235 17.9988 7.03267C17.969 7.01013 17.9344 6.99499 17.8976 6.98851C17.5485 6.90262 17.1914 6.8536 16.832 6.84227C16.6234 6.83267 16.4301 6.85571 16.2589 6.98371C16.1191 7.08835 15.9709 7.10563 15.7952 7.07651C15.2282 6.98211 14.6583 6.90467 14.089 6.82403C13.9232 6.80067 13.7591 6.76003 13.5898 6.76835C13.4442 6.77507 13.3632 6.82563 13.3264 6.94563C13.145 7.53827 13.0064 8.13955 13.0266 8.76515C13.0371 9.34249 13.2283 9.90203 13.5732 10.3651C13.9572 10.8829 14.4768 11.2151 15.0711 11.44C15.7562 11.6986 16.4724 11.7911 17.1994 11.8224L17.201 11.8237ZM17.137 15.7511C17.1034 15.7731 17.0813 15.7879 17.0589 15.8019C16.7815 15.976 16.5044 16.1507 16.2253 16.3223C16.169 16.3568 16.1664 16.3747 16.2189 16.4183C16.6669 16.7879 17.113 17.1603 17.56 17.5315C17.5712 17.5411 17.5815 17.5575 17.6052 17.5463C17.61 17.4637 17.6196 17.3789 17.6183 17.2941C17.6181 17.1984 17.6383 17.1037 17.6775 17.0163C17.802 16.7194 17.921 16.4202 18.0432 16.1223C18.0589 16.0857 18.066 16.0461 18.064 16.0064C18.0532 15.7427 18.0429 15.4791 18.0349 15.2154C18.0336 15.1677 18.0191 15.1213 17.993 15.0813C17.7101 14.6237 17.4292 14.1651 17.1453 13.7079C17.1327 13.6897 17.1246 13.6688 17.1214 13.6469C17.1183 13.6251 17.1204 13.6027 17.1274 13.5818C17.1748 13.4183 17.2176 13.2535 17.2647 13.0896C17.2824 13.0255 17.2879 12.9586 17.2807 12.8925C17.264 12.712 17.2487 12.5315 17.2362 12.3507C17.2327 12.2906 17.2157 12.2707 17.152 12.2704C16.7282 12.2707 16.3055 12.2288 15.89 12.1453C14.808 11.9213 13.936 11.3799 13.314 10.456C13.3015 10.4378 13.2954 10.4115 13.2621 10.4042C13.2586 10.4192 13.2548 10.4339 13.2516 10.4487C12.9755 11.7581 12.6996 13.0678 12.4237 14.3776C12.3892 14.5411 12.3892 14.5431 12.5536 14.5603C12.6599 14.5715 12.761 14.6055 12.8736 14.5645C13.4192 14.3683 13.9684 14.1821 14.5156 13.9885C14.5427 13.976 14.5728 13.9714 14.6024 13.9751C14.6321 13.9789 14.6601 13.9908 14.6832 14.0096C15.4096 14.528 16.1375 15.0445 16.8669 15.5591L17.137 15.7511ZM14.5789 14.2928C14.5789 14.6845 14.5789 15.0707 14.5789 15.4573C14.5796 15.5232 14.5667 15.5886 14.5408 15.6493C14.3296 16.152 14.121 16.656 13.9092 17.1587C13.8971 17.182 13.8913 17.208 13.8923 17.2342C13.8934 17.2604 13.9011 17.2859 13.9149 17.3082C13.9597 17.3869 13.9994 17.4682 14.0362 17.5511C14.043 17.572 14.0568 17.59 14.0752 17.602C14.0937 17.614 14.1157 17.6193 14.1376 17.617C14.6471 17.6141 15.1562 17.617 15.6653 17.6147C15.6874 17.6147 15.7127 17.625 15.7364 17.5991C15.6896 17.5031 15.6445 17.4035 15.594 17.3075C15.568 17.2614 15.5603 17.2072 15.5722 17.1555C15.697 16.5456 15.8186 15.9347 15.9453 15.3251C15.9581 15.2647 15.9453 15.2346 15.8973 15.201C15.4796 14.9102 15.0627 14.6184 14.6464 14.3255C14.6281 14.3059 14.6031 14.2939 14.5764 14.2915L14.5789 14.2928ZM21.6237 12.4515C21.6823 12.4515 21.7408 12.4535 21.7994 12.4515C22.1492 12.4375 22.4944 12.3943 22.8272 12.2791C22.9296 12.2485 23.024 12.1957 23.1037 12.1245C23.1415 12.0883 23.1757 12.0458 23.1536 11.9911C23.1341 11.9424 23.0813 11.9389 23.0372 11.9386C22.9306 11.9386 22.8234 11.9357 22.7172 11.9453C22.2677 11.9882 21.8142 11.9546 21.376 11.8458C20.5965 11.6522 19.9018 11.2845 19.2592 10.8122C19.1759 10.7471 19.0763 10.706 18.9712 10.6935C18.6714 10.6615 18.4109 10.7309 18.217 10.9792C18.1812 11.025 18.1802 11.0541 18.2272 11.0957C18.4746 11.3149 18.7412 11.5114 19.0237 11.6829C19.8205 12.1687 20.6797 12.4509 21.6212 12.4503L21.6237 12.4515ZM19.2384 12.1053C19.2468 12.161 19.2544 12.2013 19.2586 12.2445C19.2717 12.3821 19.3168 12.5159 19.3031 12.656C19.2608 13.0858 19.1693 13.5082 19.113 13.936C19.0695 14.2691 19.025 14.6026 19.0429 14.9392C19.0573 15.2112 19.1456 15.4563 19.3764 15.6179C19.594 15.7703 19.833 15.8167 20.0842 15.6871C20.1037 15.6788 20.1202 15.6646 20.1311 15.6464C20.142 15.6282 20.1469 15.6071 20.145 15.5859C20.144 15.4954 20.1351 15.4052 20.1184 15.3162C20.1072 15.2599 20.089 15.2451 20.0282 15.256C19.8023 15.2967 19.6471 15.1341 19.6912 14.9098C19.73 14.7127 19.8084 14.529 19.8832 14.3443C20.0653 13.9011 20.2816 13.473 20.4708 13.0323C20.5191 12.9082 20.5487 12.7776 20.5588 12.6448C20.5639 12.6013 20.5588 12.5789 20.5044 12.5719C20.4148 12.5588 20.3261 12.5404 20.2388 12.5168C19.8885 12.4249 19.552 12.2865 19.2384 12.1053Z" fill="#DFAC0F"/>
<path d="M17.3455 21.6517C17.4392 21.6668 17.5311 21.6917 17.6197 21.726C17.9103 21.8473 18.0651 22.0722 18.0792 22.3791C18.1055 22.9458 17.8325 23.3621 17.3819 23.6741C17.0924 23.8736 16.7486 23.9794 16.397 23.9775C15.9307 23.981 15.4642 23.9775 14.9976 23.9775C14.8728 23.9775 14.8447 23.9423 14.8696 23.8213C15.1519 22.4537 15.4342 21.086 15.7167 19.7183C15.7455 19.5778 15.7807 19.5503 15.9215 19.5503C16.2226 19.5503 16.5237 19.5503 16.8251 19.5503C17.1039 19.5503 17.3787 19.5823 17.6367 19.6959C17.9163 19.8191 18.1263 20.0124 18.1563 20.3311C18.1992 20.7858 18.0459 21.1682 17.6795 21.4549C17.5752 21.5318 17.4633 21.5978 17.3455 21.6517ZM16.1112 23.4607V23.4559C16.2098 23.4559 16.3083 23.4601 16.4066 23.4559C16.8799 23.4332 17.1903 23.1602 17.2757 22.6949C17.3448 22.3167 17.1611 22.0549 16.7839 21.998C16.5483 21.9631 16.3106 21.9897 16.0741 21.9813C16.0351 21.9813 16.0328 22.0031 16.0274 22.03C16.0011 22.1602 15.9739 22.2905 15.9467 22.4204C15.8802 22.7404 15.8149 23.0604 15.7461 23.3804C15.732 23.4444 15.7442 23.4684 15.8159 23.4636C15.9138 23.4559 16.0127 23.4607 16.1112 23.4607ZM16.3768 21.4636C16.4778 21.4697 16.5792 21.4639 16.6789 21.4463C17.0466 21.3621 17.3272 21.0348 17.3637 20.6463C17.3928 20.3375 17.2568 20.1538 16.9544 20.0917C16.8203 20.0642 16.6843 20.0719 16.5493 20.0633C16.4565 20.0572 16.4251 20.0853 16.4075 20.1778C16.3304 20.5849 16.245 20.9903 16.1579 21.3957C16.1442 21.4597 16.1634 21.4671 16.2171 21.4636C16.2709 21.4601 16.3234 21.4636 16.3768 21.4636Z" fill="white"/>
<path d="M21.0704 21.177C21.1123 21.073 21.151 20.985 21.183 20.8964C21.192 20.8614 21.2133 20.8307 21.2431 20.8101C21.2728 20.7895 21.309 20.7803 21.3449 20.7841C21.4809 20.787 21.6169 20.7841 21.7529 20.7841C21.8537 20.7841 21.8832 20.8215 21.864 20.9178C21.7146 21.6558 21.5653 22.3938 21.416 23.1319C21.4008 23.1915 21.3956 23.2531 21.4006 23.3143C21.4144 23.4167 21.4486 23.4529 21.551 23.4663C21.615 23.4746 21.6419 23.5098 21.631 23.57C21.6128 23.6721 21.5917 23.7738 21.567 23.8746C21.5617 23.9054 21.5454 23.9332 21.521 23.9528C21.4967 23.9724 21.4661 23.9824 21.4349 23.9809C21.3068 23.9868 21.1785 23.9743 21.0541 23.9438C20.8573 23.8919 20.7497 23.7649 20.7248 23.5598C20.7219 23.5364 20.7209 23.5127 20.7187 23.4852C20.6841 23.4935 20.672 23.5223 20.6547 23.5422C20.2579 23.9754 19.7664 24.129 19.1936 24.0295C18.8076 23.9623 18.5676 23.7214 18.4812 23.3364C18.4073 23.0084 18.447 22.6846 18.5132 22.3617C18.5913 21.9777 18.7228 21.6158 18.9612 21.2964C19.3731 20.7399 20.0361 20.6218 20.5404 20.7482C20.7737 20.8087 20.9459 20.9502 21.0704 21.177ZM19.1824 22.9514C19.1824 23.0236 19.1886 23.0957 19.2009 23.1668C19.2358 23.3793 19.3529 23.497 19.5654 23.5326C19.9814 23.6023 20.3795 23.4215 20.5865 23.0484C20.7919 22.6727 20.892 22.2485 20.8765 21.8206C20.8691 21.5178 20.7254 21.33 20.4707 21.2554C20.3212 21.2144 20.1643 21.2084 20.0121 21.2378C19.7427 21.2833 19.5856 21.4638 19.4755 21.6935C19.2848 22.091 19.2169 22.5175 19.1824 22.9514Z" fill="white"/>
<path d="M27.2419 19.5776C27.1533 20.0086 27.0646 20.4387 26.9756 20.8679C26.8873 21.2976 26.7993 21.7274 26.7103 22.16C26.7519 22.1575 26.7654 22.128 26.7849 22.1088C27.1846 21.713 27.5849 21.3178 27.9817 20.9191C28.0221 20.875 28.0717 20.8404 28.127 20.8176C28.1823 20.7949 28.242 20.7846 28.3017 20.7876C28.4479 20.793 28.5948 20.7876 28.7414 20.7904C28.7734 20.7904 28.8137 20.7818 28.8278 20.8138C28.8419 20.8458 28.8028 20.8682 28.7807 20.8887C28.2901 21.3505 27.7979 21.8116 27.3043 22.2717C27.2524 22.32 27.2524 22.3501 27.2892 22.4071C27.5951 22.881 27.8972 23.3575 28.2015 23.833C28.2159 23.8554 28.2303 23.8781 28.2428 23.9012C28.2691 23.9492 28.2547 23.9828 28.2003 23.9831C27.9683 23.9831 27.7363 23.9853 27.5046 23.9802C27.4351 23.9802 27.3951 23.9236 27.3612 23.8656C27.131 23.4701 26.9 23.0754 26.6681 22.6816C26.654 22.6576 26.6473 22.6269 26.6118 22.6103C26.5459 22.9303 26.4809 23.2461 26.4153 23.5626C26.3948 23.6618 26.3753 23.761 26.3529 23.8596C26.3305 23.9581 26.2931 23.9847 26.1974 23.9853C26.0483 23.9853 25.8988 23.9853 25.7494 23.9853C25.6163 23.9853 25.5913 23.9559 25.6179 23.8282C25.6998 23.4324 25.783 23.0365 25.8649 22.6404C26.0445 21.7761 26.2228 20.9132 26.3996 20.0516C26.4024 20.0296 26.4108 20.0088 26.4241 19.991C26.4373 19.9733 26.4549 19.9593 26.4751 19.9504C26.7039 19.8372 26.9308 19.72 27.1587 19.6052C27.1829 19.5876 27.212 19.578 27.2419 19.5776Z" fill="white"/>
<path d="M23.3008 21.3005C23.4118 21.1519 23.5398 21.0169 23.6823 20.8983C24.0186 20.6231 24.7002 20.6659 25.0163 20.9549C25.2723 21.1895 25.3418 21.4899 25.2864 21.8157C25.2144 22.2378 25.1187 22.6557 25.0352 23.0758C25.017 23.167 24.9997 23.2595 25.025 23.353C25.0426 23.4186 25.0707 23.4714 25.153 23.4707C25.2221 23.4707 25.249 23.513 25.2375 23.5766C25.2192 23.6784 25.1987 23.7805 25.1751 23.8813C25.1696 23.9108 25.1536 23.9374 25.1301 23.9561C25.1066 23.9748 25.0771 23.9844 25.0471 23.983C24.9191 23.99 24.7908 23.977 24.6669 23.9443C24.3789 23.8634 24.2368 23.6563 24.2509 23.3363C24.2602 23.119 24.3239 22.9117 24.3619 22.6998C24.4138 22.4118 24.5005 22.1303 24.5165 21.8359C24.5202 21.7775 24.5202 21.7189 24.5165 21.6605C24.4941 21.3373 24.2925 21.1831 23.9754 21.2368C23.8763 21.2528 23.7818 21.2896 23.6979 21.3448C23.6141 21.3999 23.5429 21.4722 23.489 21.5568C23.3463 21.7661 23.2858 22.0048 23.2352 22.2487C23.1249 22.7798 23.0137 23.311 22.9015 23.8422C22.8778 23.9542 22.8397 23.9834 22.7251 23.9837C22.5706 23.9837 22.4157 23.9837 22.2611 23.9837C22.1629 23.9837 22.1331 23.9434 22.1517 23.8467C22.301 23.1169 22.451 22.3871 22.6016 21.6573C22.6183 21.5767 22.6381 21.4973 22.6138 21.4128C22.5946 21.3488 22.56 21.3072 22.4858 21.3011C22.3965 21.2938 22.3773 21.2627 22.3952 21.1731C22.4131 21.0835 22.4311 20.9955 22.4496 20.9072C22.4537 20.8736 22.4701 20.8426 22.4957 20.8205C22.5213 20.7983 22.5543 20.7864 22.5882 20.7872C22.7189 20.7789 22.85 20.7916 22.9767 20.825C23.1875 20.8861 23.2755 20.9939 23.2967 21.2122C23.2967 21.2352 23.2967 21.2583 23.3008 21.3005Z" fill="white"/>
<path d="M4.61071 21.4553H5.09391C5.33391 21.4553 5.57391 21.4553 5.81391 21.4553C5.92943 21.4553 5.95727 21.4892 5.93455 21.6025C5.91663 21.6911 5.89743 21.7794 5.87759 21.8677C5.85231 21.9791 5.81359 22.0098 5.69231 22.0098C5.32431 22.0098 4.95631 22.0098 4.58863 22.0073C4.51855 22.0073 4.48943 22.0207 4.47439 22.0965C4.36303 22.6604 4.24463 23.2226 4.12911 23.7858C4.09711 23.9458 4.07151 23.9676 3.90511 23.9676C3.75311 23.9676 3.60111 23.9676 3.44943 23.9676C3.33935 23.9676 3.31087 23.932 3.33327 23.8239C3.46767 23.1724 3.60239 22.5211 3.73743 21.87C3.88463 21.1585 4.0314 20.4472 4.17775 19.7359C4.21359 19.5618 4.23759 19.5407 4.41743 19.541L6.49743 19.5449C6.64591 19.5449 6.66831 19.5721 6.63791 19.7138C6.61999 19.797 6.60303 19.8805 6.58319 19.9634C6.55855 20.0668 6.52207 20.0956 6.41583 20.0956C5.93583 20.0956 5.45583 20.0956 4.97583 20.0956C4.91183 20.0956 4.88495 20.1074 4.87151 20.1756C4.78831 20.5996 4.69935 21.0239 4.61071 21.4553Z" fill="white"/>
<path d="M10.9047 24.0482C10.6515 24.0459 10.4002 24.0026 10.1607 23.9202C10.0763 23.894 9.9995 23.8477 9.93675 23.7855C9.87275 23.7186 9.87275 23.6575 9.92875 23.5858C9.96523 23.54 10.0059 23.4978 10.0449 23.4536C10.1409 23.3439 10.1569 23.34 10.3009 23.3896C10.5006 23.4568 10.7015 23.5176 10.9137 23.5282C11.1015 23.5381 11.2862 23.5308 11.4635 23.4584C11.5333 23.4311 11.5951 23.3868 11.6435 23.3295C11.6919 23.2722 11.7253 23.2038 11.7406 23.1304C11.7703 23.0149 11.7367 22.9352 11.6353 22.8712C11.5273 22.8079 11.4119 22.7582 11.2916 22.7234C11.1553 22.6792 11.0193 22.6316 10.8807 22.5954C10.3847 22.4632 10.2654 22.0892 10.3623 21.6632C10.4779 21.156 10.8791 20.7992 11.4126 20.7231C11.7924 20.6696 12.1675 20.6911 12.5252 20.8488C12.5971 20.8772 12.6635 20.918 12.7214 20.9691C12.7809 21.0261 12.7854 21.0735 12.7342 21.1365C12.6702 21.2127 12.6036 21.2844 12.5399 21.3605C12.5079 21.398 12.4731 21.3954 12.4321 21.3836C12.2763 21.3391 12.1275 21.2709 11.9671 21.2418C11.7844 21.2098 11.6014 21.1986 11.4209 21.2504C11.3431 21.271 11.2719 21.3112 11.2141 21.3673C11.1563 21.4233 11.1139 21.4933 11.091 21.5704C11.0334 21.7416 11.0964 21.8639 11.2686 21.918C11.4817 21.9848 11.6958 22.0482 11.9086 22.1132C12.0162 22.143 12.1197 22.186 12.2167 22.2412C12.3966 22.3484 12.4855 22.5093 12.4961 22.7151C12.5246 23.2674 12.2273 23.7055 11.6795 23.9205C11.4443 24.0127 11.1991 24.0492 10.9047 24.0482Z" fill="white"/>
<path d="M13.5801 21.2638C13.4825 21.2638 13.3839 21.2638 13.2857 21.2638C13.1718 21.2638 13.1465 21.2341 13.1682 21.1249C13.1839 21.0465 13.2002 20.9685 13.2191 20.891C13.2244 20.859 13.2414 20.83 13.2668 20.8097C13.2923 20.7895 13.3243 20.7793 13.3567 20.7813C13.4447 20.7813 13.533 20.7761 13.6207 20.7813C13.6796 20.7854 13.6975 20.763 13.7068 20.7086C13.7311 20.5646 13.7625 20.4206 13.79 20.2776C13.7951 20.2513 13.7974 20.2273 13.8265 20.2136C14.0898 20.0811 14.3529 19.9473 14.6236 19.8101C14.6306 19.8961 14.6028 19.9681 14.589 20.0411C14.5471 20.2651 14.5013 20.4849 14.454 20.7064C14.4415 20.7643 14.4501 20.7864 14.5164 20.7829C14.6252 20.7774 14.7349 20.7803 14.8441 20.7829C14.9324 20.7845 14.9599 20.8165 14.9442 20.9038C14.9285 20.9912 14.9097 21.0705 14.8895 21.1531C14.8693 21.2357 14.8181 21.2673 14.7378 21.2667C14.6233 21.2667 14.5084 21.2667 14.3938 21.2667C14.3529 21.2667 14.3321 21.276 14.3231 21.3195C14.2043 21.9147 14.0844 22.5095 13.9634 23.1038C13.9487 23.172 13.9522 23.2428 13.9734 23.3093C13.9895 23.3549 14.0197 23.3941 14.0596 23.4215C14.0995 23.4488 14.1471 23.4627 14.1954 23.4613C14.4069 23.4667 14.4089 23.4686 14.3685 23.677C14.3561 23.741 14.342 23.8072 14.3269 23.8718C14.3225 23.9014 14.3076 23.9284 14.2848 23.9477C14.262 23.9671 14.233 23.9775 14.2031 23.9771C14.0329 23.9813 13.861 23.9925 13.6911 23.9624C13.3583 23.9029 13.1935 23.7064 13.1878 23.3646C13.1839 23.1406 13.245 22.9272 13.2889 22.7109C13.3849 22.2363 13.4838 21.7621 13.581 21.2875C13.5818 21.2796 13.5814 21.2716 13.5801 21.2638Z" fill="white"/>
<path d="M9.16203 21.1384C9.19303 21.0987 9.22603 21.0606 9.26091 21.0242C9.49995 20.7976 9.79211 20.7218 10.1127 20.7279C10.1767 20.7279 10.2046 20.7484 10.1873 20.8204C10.1527 20.9624 10.1262 21.1064 10.0955 21.2495C10.0683 21.3775 10.0263 21.3986 9.89867 21.3829C9.57131 21.3429 9.21323 21.4556 9.10667 21.9269C8.9646 22.5573 8.8286 23.1893 8.69068 23.8207C8.65868 23.9714 8.63052 23.9944 8.47436 23.9941C8.33324 23.9941 8.1918 23.9941 8.05068 23.9941C7.94028 23.9941 7.91308 23.9586 7.93644 23.8498C8.09367 23.1189 8.25111 22.3883 8.40876 21.6578C8.42567 21.5934 8.43406 21.527 8.43372 21.4604C8.4286 21.3541 8.3902 21.31 8.28364 21.2927C8.21964 21.2824 8.18956 21.2466 8.20204 21.1813C8.22028 21.0853 8.23852 20.9893 8.26028 20.8933C8.26475 20.861 8.28095 20.8315 8.3058 20.8103C8.33064 20.7892 8.36239 20.778 8.395 20.7788C8.56012 20.7762 8.72556 20.7788 8.88588 20.8277C9.035 20.8732 9.12652 20.9692 9.13931 21.1311L9.16203 21.1384Z" fill="white"/>
<path d="M6.36252 23.4349C6.36924 23.2067 6.43516 22.9888 6.48252 22.768C6.61276 22.16 6.74652 21.552 6.87932 20.944C6.90364 20.8323 6.94332 20.8019 7.05532 20.8013C7.20466 20.8013 7.35399 20.8013 7.50332 20.8013C7.61564 20.8013 7.64284 20.8333 7.61948 20.9418C7.46226 21.6701 7.3045 22.3982 7.1462 23.1261C7.12454 23.2143 7.11666 23.3053 7.12284 23.3958C7.13244 23.4979 7.1686 23.5366 7.26716 23.5514C7.32604 23.5603 7.35324 23.5952 7.34332 23.6512C7.32476 23.7562 7.30364 23.8605 7.27932 23.9638C7.27325 23.9915 7.25778 24.0162 7.23555 24.0337C7.21331 24.0512 7.1857 24.0604 7.1574 24.0598C6.9974 24.065 6.8374 24.0522 6.687 23.9885C6.46396 23.8957 6.35676 23.7082 6.36252 23.4349Z" fill="white"/>
<path d="M17.542 25.9345C17.8121 26.0878 17.8358 26.3953 17.606 26.6171C17.4384 26.7803 17.0723 26.8328 16.8643 26.724C16.8158 26.7006 16.775 26.6639 16.7466 26.6182C16.7183 26.5724 16.7036 26.5195 16.7043 26.4657C16.698 26.3734 16.7178 26.2811 16.7614 26.1994C16.805 26.1178 16.8707 26.05 16.951 26.0039C16.991 25.979 17.0348 25.9601 17.0764 25.9399C17.0764 25.9339 17.0764 25.9265 17.0739 25.9252C16.8463 25.8075 16.8969 25.5915 17.016 25.4222C17.0761 25.3428 17.1624 25.2872 17.2595 25.2651C17.3681 25.2364 17.4817 25.232 17.5923 25.2523C17.6985 25.2699 17.7958 25.314 17.8288 25.4279C17.8489 25.4886 17.8531 25.5535 17.8411 25.6163C17.829 25.6791 17.8011 25.7377 17.76 25.7867C17.7033 25.8532 17.6284 25.8932 17.542 25.9345ZM16.9769 26.3857C16.9745 26.4313 16.9892 26.4762 17.0179 26.5117C17.0467 26.5471 17.0876 26.5707 17.1328 26.5777C17.3443 26.6232 17.5488 26.4068 17.496 26.1937C17.4875 26.1516 17.4647 26.1137 17.4314 26.0864C17.3982 26.0592 17.3565 26.0443 17.3136 26.0443C17.1334 26.0366 16.9763 26.1953 16.9769 26.3857ZM17.4195 25.4359C17.3889 25.4357 17.3586 25.4415 17.3303 25.4531C17.3019 25.4646 17.2761 25.4816 17.2544 25.5031C17.2326 25.5245 17.2153 25.5501 17.2035 25.5783C17.1916 25.6065 17.1854 25.6367 17.1852 25.6673C17.1839 25.6886 17.1869 25.7098 17.1939 25.7299C17.201 25.75 17.212 25.7685 17.2262 25.7843C17.2405 25.8001 17.2578 25.8129 17.2771 25.8219C17.2964 25.831 17.3172 25.836 17.3385 25.8369C17.4553 25.8388 17.5785 25.7089 17.5811 25.5838C17.5827 25.4961 17.5174 25.4366 17.4195 25.4359Z" fill="white"/>
<path d="M19.0226 25.5404C19.016 25.4692 18.9861 25.4021 18.9376 25.3495C18.8891 25.297 18.8246 25.2618 18.7541 25.2495C18.6539 25.2316 18.5508 25.2397 18.4546 25.2729C18.1788 25.3724 18.0786 25.5971 18.0527 25.8623C18.0255 26.1478 18.1913 26.295 18.4773 26.2617C18.5855 26.2489 18.6601 26.1884 18.7369 26.1177C18.7293 26.2108 18.6998 26.3009 18.6508 26.3804C18.5679 26.5302 18.4441 26.6063 18.2687 26.5769C18.2106 26.5702 18.1533 26.558 18.0975 26.5404C18.0015 26.5043 17.9993 26.5891 17.9721 26.6329C17.9382 26.6876 17.9974 26.6995 18.0287 26.7148C18.2934 26.8463 18.5839 26.7897 18.7647 26.5497C18.9912 26.2531 19.0706 25.9091 19.0226 25.5404ZM18.7935 25.6822C18.7818 25.7722 18.7528 25.8592 18.7081 25.9382C18.6575 26.0211 18.5881 26.071 18.486 26.0662C18.358 26.063 18.302 26.0057 18.3049 25.8591C18.3108 25.7722 18.3334 25.6873 18.3714 25.6089C18.3953 25.555 18.4351 25.5097 18.4853 25.479C18.5599 25.4358 18.6421 25.4124 18.7193 25.4617C18.7964 25.511 18.8079 25.5958 18.7935 25.6822Z" fill="white"/>
<path d="M19.744 26.3998H19.1776C19.0992 26.3998 19.0841 26.3752 19.12 26.3038C19.1342 26.2785 19.1516 26.255 19.1718 26.2341C19.4307 25.9371 19.6938 25.6437 19.9475 25.3426C20.0221 25.2539 20.1075 25.2632 20.2 25.268C20.2522 25.2706 20.232 25.3138 20.2259 25.3419C20.1807 25.5633 20.1351 25.7846 20.089 26.0056C20.0811 26.0555 20.0704 26.105 20.057 26.1537C20.0387 26.2101 20.0637 26.2133 20.1098 26.2158C20.1459 26.2177 20.2103 26.1838 20.2087 26.2638C20.2064 26.3726 20.1827 26.4072 20.1015 26.3985C20.0202 26.3899 19.9917 26.4222 19.9866 26.4945C19.9829 26.5209 19.9777 26.5469 19.9709 26.5726C19.9309 26.7685 19.9309 26.7669 19.7309 26.756C19.6813 26.7531 19.6723 26.7333 19.6813 26.692C19.7021 26.5982 19.7216 26.5045 19.744 26.3998ZM19.8938 25.6689L19.4378 26.2129C19.5536 26.2129 19.648 26.2129 19.7424 26.2129C19.7483 26.2138 19.7543 26.2133 19.76 26.2117C19.7657 26.2101 19.771 26.2073 19.7756 26.2035C19.7802 26.1997 19.7839 26.195 19.7866 26.1897C19.7892 26.1844 19.7907 26.1786 19.791 26.1726C19.823 26.0126 19.856 25.852 19.8934 25.6686L19.8938 25.6689Z" fill="white"/>
<path d="M10.6162 26.7736C10.494 26.7734 10.373 26.7495 10.26 26.7032C10.2318 26.691 10.1765 26.6837 10.2018 26.6392C10.227 26.5947 10.2315 26.5083 10.3218 26.5298C10.4453 26.5626 10.5728 26.5783 10.7006 26.5765C10.7678 26.5749 10.8337 26.5572 10.8926 26.525C11.0414 26.4418 11.0469 26.283 10.8997 26.1963C10.8273 26.1579 10.7524 26.1241 10.6757 26.0952C10.3598 25.9592 10.3013 25.651 10.5518 25.4123C10.7534 25.2203 10.9963 25.204 11.2533 25.2699C11.2763 25.276 11.2987 25.2843 11.3214 25.292C11.4434 25.3339 11.4456 25.3429 11.379 25.4482C11.3756 25.4559 11.3706 25.4628 11.3645 25.4686C11.3583 25.4744 11.3511 25.4789 11.3432 25.4819C11.3352 25.4849 11.3268 25.4863 11.3184 25.486C11.3099 25.4857 11.3016 25.4837 11.2939 25.4802C11.169 25.4412 11.0377 25.4269 10.9074 25.4379C10.8631 25.4407 10.8202 25.4539 10.7821 25.4765C10.744 25.499 10.7118 25.5304 10.6882 25.5678C10.6242 25.6718 10.6478 25.7662 10.757 25.8197C10.8309 25.8558 10.909 25.8837 10.9845 25.9157C11.3102 26.0539 11.3563 26.4174 11.0766 26.6357C10.9602 26.7253 10.8062 26.7726 10.6162 26.7736Z" fill="white"/>
<path d="M12.5038 25.8395C12.5784 25.7592 12.6408 25.6833 12.7448 25.6603C13.0267 25.5982 13.2213 25.7864 13.1637 26.0686C13.1368 26.2014 13.1083 26.3339 13.0827 26.467C13.0738 26.5144 13.0683 26.5569 13.132 26.5832C13.1819 26.6036 13.1387 26.6532 13.1371 26.6897C13.1377 26.6977 13.1367 26.7057 13.1341 26.7132C13.1314 26.7208 13.1273 26.7277 13.1218 26.7335C13.1164 26.7393 13.1098 26.744 13.1024 26.7471C13.0951 26.7503 13.0872 26.7519 13.0792 26.7518C12.9045 26.7716 12.795 26.6593 12.8258 26.4852C12.8488 26.3544 12.877 26.2245 12.9026 26.0939C12.9072 26.0728 12.9101 26.0514 12.9112 26.0299C12.9134 25.9541 12.9112 25.8773 12.8309 25.8379C12.7618 25.8037 12.6533 25.8328 12.5912 25.9019C12.5291 25.971 12.5006 26.0619 12.4814 26.1547C12.4443 26.3316 12.4059 26.5083 12.371 26.6859C12.3707 26.6957 12.3683 26.7054 12.364 26.7142C12.3596 26.723 12.3535 26.7308 12.346 26.7372C12.3384 26.7435 12.3296 26.7481 12.3202 26.7508C12.3107 26.7535 12.3008 26.7542 12.291 26.7528C12.1038 26.7572 12.1042 26.7588 12.1419 26.5755C12.1835 26.3722 12.2248 26.169 12.2658 25.9659C12.2757 25.9163 12.2898 25.8638 12.2165 25.8453C12.1845 25.8369 12.1915 25.8065 12.1998 25.7854C12.2146 25.7486 12.1963 25.6952 12.2526 25.6792C12.2797 25.6706 12.3084 25.6681 12.3366 25.6718C12.3647 25.6755 12.3917 25.6854 12.4157 25.7007C12.4397 25.7159 12.46 25.7363 12.4752 25.7603C12.4904 25.7843 12.5002 25.8113 12.5038 25.8395Z" fill="white"/>
<path d="M14.9025 26.3022C14.8334 26.3022 14.7636 26.3057 14.6948 26.3022C14.6436 26.299 14.6308 26.3208 14.6308 26.3662C14.6241 26.5345 14.715 26.6238 14.8817 26.6033C14.9503 26.5947 15.0178 26.5793 15.0833 26.5572C15.1342 26.5403 15.1531 26.5572 15.1732 26.6004C15.1934 26.6436 15.1844 26.6769 15.1412 26.6987C15.0097 26.7655 14.8616 26.7924 14.715 26.7761C14.467 26.7518 14.3547 26.6081 14.378 26.3585C14.3881 26.2229 14.4238 26.0904 14.4833 25.9681C14.6059 25.724 14.8353 25.6113 15.0983 25.6641C15.2513 25.6961 15.3415 25.7963 15.3492 25.9521C15.3518 26 15.3486 26.0481 15.3396 26.0952C15.3076 26.2494 15.2436 26.3016 15.0865 26.3048C15.0254 26.3048 14.9639 26.3048 14.9028 26.3048L14.9025 26.3022ZM14.6731 26.1272H15.0145C15.0276 26.1287 15.0408 26.1266 15.0527 26.1209C15.0646 26.1152 15.0747 26.1063 15.0817 26.0952C15.1163 26.036 15.0999 25.9118 15.0497 25.8632C14.9995 25.8145 14.9246 25.8107 14.8503 25.8529C14.7463 25.9115 14.7083 26.0161 14.6731 26.1272Z" fill="white"/>
<path d="M7.5317 19.5839C7.61682 19.5839 7.70194 19.5819 7.7877 19.5839C7.86514 19.5861 7.89554 19.6216 7.88082 19.6959C7.84754 19.8627 7.81234 20.0289 7.77522 20.1944C7.7557 20.2799 7.71122 20.3147 7.62162 20.3154C7.46162 20.3154 7.30162 20.3154 7.14162 20.3154C7.04178 20.3138 7.01362 20.2757 7.03506 20.1784C7.06706 20.0226 7.10162 19.8667 7.1365 19.7115C7.1573 19.6187 7.19858 19.5858 7.2917 19.5835C7.37138 19.5835 7.4517 19.5835 7.53106 19.5835L7.5317 19.5839Z" fill="white"/>
<path d="M16.2762 25.5733C16.1898 25.6092 16.1124 25.6415 16.0343 25.6725C16.0151 25.6802 15.9873 25.6936 15.9754 25.686C15.9524 25.6712 15.9706 25.6421 15.9719 25.6191C15.9767 25.5359 16.0193 25.4876 16.0999 25.4572C16.2465 25.4009 16.3879 25.334 16.5329 25.2722C16.554 25.2629 16.5774 25.2402 16.5969 25.2537C16.6164 25.2671 16.5998 25.2981 16.5969 25.3199C16.505 25.7711 16.4116 26.222 16.3207 26.6731C16.3086 26.7336 16.2817 26.7554 16.2186 26.7544C16.0366 26.7519 16.0378 26.7544 16.0753 26.5768C16.1418 26.262 16.2065 25.9464 16.2718 25.6313C16.274 25.6162 16.2737 25.5999 16.2762 25.5733Z" fill="white"/>
<path d="M13.3733 26.3911C13.3765 26.244 13.4117 26.0995 13.4763 25.9674C13.6097 25.689 13.9656 25.5639 14.2373 25.7008C14.2718 25.7184 14.3361 25.7274 14.3134 25.7911C14.2875 25.8621 14.2245 25.8925 14.1624 25.8631C13.9176 25.7479 13.7445 25.8928 13.6789 26.097C13.6436 26.1976 13.6275 26.304 13.6315 26.4106C13.6398 26.5431 13.7221 26.6135 13.8555 26.6026C13.9188 26.5942 13.9809 26.5783 14.0405 26.5552C14.0725 26.5447 14.1013 26.5344 14.1176 26.5789C14.131 26.6157 14.1569 26.6477 14.1131 26.6851C13.9784 26.8 13.6309 26.809 13.4923 26.6983C13.3912 26.6195 13.3707 26.5095 13.3733 26.3911Z" fill="white"/>
<path d="M11.4756 26.5112C11.505 26.3643 11.5396 26.1912 11.5757 26.0155C11.5943 25.9243 11.6161 25.8338 11.6321 25.7422C11.6323 25.7324 11.6347 25.7227 11.6389 25.7139C11.6432 25.705 11.6493 25.6971 11.6568 25.6908C11.6644 25.6844 11.6731 25.6797 11.6826 25.677C11.6921 25.6743 11.702 25.6736 11.7117 25.675C11.9009 25.6693 11.8999 25.6677 11.8621 25.8501C11.8202 26.0533 11.7786 26.2561 11.7386 26.4597C11.729 26.5089 11.7197 26.5557 11.7885 26.5822C11.8372 26.6008 11.7959 26.6462 11.7943 26.6817C11.7927 26.7173 11.7831 26.7432 11.7425 26.7512C11.5988 26.7793 11.4756 26.6824 11.4756 26.5112Z" fill="white"/>
<path d="M11.8641 25.2184C11.8961 25.2184 11.9207 25.2184 11.9444 25.2184C11.968 25.2184 11.9895 25.2286 11.9847 25.2555C11.9738 25.3153 11.9604 25.3745 11.9456 25.4334C11.9399 25.4558 11.9194 25.4635 11.897 25.4677C11.7082 25.5016 11.6865 25.475 11.7249 25.2897C11.7444 25.1893 11.8167 25.227 11.8641 25.2184Z" fill="white"/>
<path d="M17.1996 11.8224C16.4726 11.7904 15.7564 11.6986 15.0706 11.4384C14.4764 11.2144 13.9567 10.8813 13.5727 10.3635C13.2278 9.90043 13.0367 9.34089 13.0262 8.76354C13.0073 8.13794 13.1446 7.53666 13.326 6.94402C13.3628 6.82402 13.4438 6.77346 13.5894 6.76674C13.7586 6.75842 13.9228 6.79874 14.0886 6.82242C14.6578 6.90306 15.2278 6.9805 15.7948 7.0749C15.9702 7.10402 16.1186 7.08674 16.2585 6.9821C16.4297 6.8541 16.623 6.83106 16.8316 6.84066C17.1911 6.85281 17.5484 6.90268 17.8975 6.98946C17.9343 6.99594 17.9689 7.01108 17.9987 7.03362C18.5036 7.4733 18.9967 7.92514 19.4137 8.4525C19.6025 8.69122 19.6019 8.69314 19.5635 8.9965C19.5595 9.02087 19.5612 9.04582 19.5683 9.06945C19.5755 9.09307 19.5879 9.11475 19.6047 9.13282C19.7775 9.34274 19.9385 9.56195 20.1078 9.77443C20.3439 10.0711 20.4556 10.4112 20.4969 10.7805C20.5155 10.9446 20.5318 11.1089 20.5459 11.2736C20.5532 11.3607 20.5487 11.3626 20.4678 11.3204C20.2494 11.2035 20.0387 11.073 19.8367 10.9296C19.6172 10.7779 19.4022 10.6208 19.1942 10.4541C19.1307 10.4023 19.0542 10.3691 18.9731 10.3581C18.7358 10.3192 18.4924 10.3518 18.2737 10.4517C18.0551 10.5516 17.8711 10.7143 17.7452 10.9191C17.7046 10.985 17.7043 11.0282 17.7705 11.0685C17.7818 11.0762 17.7925 11.0847 17.8025 11.0941C17.9539 11.2253 17.9542 11.2256 17.8719 11.4141C17.8604 11.4407 17.8467 11.4669 17.8332 11.4928C17.7148 11.7168 17.5651 11.8912 17.2726 11.8247C17.2484 11.8213 17.2239 11.8205 17.1996 11.8224ZM17.9753 9.0317L17.543 8.54658C17.5068 8.50594 17.487 8.54658 17.4658 8.56386C17.247 8.75458 17.0285 8.94594 16.8105 9.13794C16.7919 9.15426 16.7644 9.16514 16.7606 9.20034L17.9753 9.0317Z" fill="#162D4C"/>
<path d="M17.134 15.75L16.8648 15.558C16.1365 15.0422 15.4086 14.526 14.6812 14.0095C14.658 13.9907 14.63 13.9788 14.6003 13.975C14.5707 13.9713 14.5406 13.9759 14.5135 13.9884C13.9663 14.1804 13.4172 14.367 12.8716 14.5644C12.758 14.6054 12.6568 14.5715 12.5516 14.5603C12.3871 14.543 12.3871 14.5411 12.4216 14.3775C12.6968 13.067 12.9721 11.757 13.2476 10.4473C13.2508 10.4326 13.2546 10.4179 13.2581 10.4028C13.2901 10.4102 13.2975 10.4364 13.31 10.4547C13.932 11.3785 14.804 11.9212 15.886 12.1439C16.3015 12.2275 16.7242 12.2694 17.148 12.2691C17.212 12.2691 17.2287 12.2892 17.2322 12.3494C17.2434 12.5302 17.26 12.7107 17.2767 12.8911C17.2839 12.9573 17.2784 13.0242 17.2607 13.0883C17.2136 13.2521 17.1708 13.4169 17.1234 13.5804C17.1164 13.6014 17.1143 13.6237 17.1174 13.6456C17.1206 13.6675 17.1287 13.6883 17.1413 13.7065C17.4252 14.1638 17.7061 14.6223 17.989 15.0799C18.0151 15.1199 18.0296 15.1663 18.0309 15.214C18.0389 15.4777 18.0492 15.7414 18.06 16.0051C18.062 16.0448 18.0549 16.0844 18.0392 16.1209C17.917 16.4188 17.798 16.718 17.6735 17.015C17.6343 17.1023 17.6141 17.197 17.6143 17.2927C17.6143 17.3775 17.606 17.4623 17.6012 17.5449C17.5775 17.5561 17.5672 17.5398 17.556 17.5302C17.108 17.159 16.6632 16.7865 16.2149 16.4169C16.1624 16.3737 16.165 16.3558 16.2213 16.3209C16.5004 16.1494 16.7775 15.9747 17.0549 15.8006C17.0783 15.7868 17.1004 15.7721 17.134 15.75Z" fill="#162D4C"/>
<path d="M14.5764 14.2915C14.6025 14.2942 14.6268 14.3062 14.6448 14.3254C15.0619 14.6173 15.4789 14.9088 15.8957 15.2C15.9444 15.2336 15.9565 15.264 15.9437 15.3241C15.8157 15.9321 15.6954 16.5446 15.5706 17.1545C15.5587 17.2061 15.5665 17.2603 15.5924 17.3065C15.6429 17.4025 15.6884 17.5014 15.7348 17.5981C15.7111 17.624 15.6858 17.6137 15.6637 17.6137C15.1546 17.6137 14.6455 17.6137 14.136 17.616C14.1141 17.6183 14.0921 17.613 14.0736 17.601C14.0552 17.589 14.0414 17.571 14.0346 17.5501C13.9978 17.4675 13.9581 17.3859 13.9133 17.3072C13.8995 17.2849 13.8917 17.2594 13.8907 17.2332C13.8897 17.207 13.8955 17.181 13.9076 17.1577C14.1194 16.655 14.328 16.151 14.5392 15.6483C14.565 15.5876 14.578 15.5222 14.5773 15.4563C14.5751 15.0694 14.5764 14.6832 14.5764 14.2915Z" fill="#162D4C"/>
<path d="M21.6216 12.4502C20.6802 12.4502 19.821 12.1686 19.0222 11.6822C18.7397 11.5107 18.4731 11.3142 18.2258 11.095C18.1787 11.0534 18.1797 11.0243 18.2155 10.9785C18.4094 10.7302 18.6699 10.6611 18.9698 10.6927C19.0748 10.7053 19.1744 10.7463 19.2578 10.8115C19.9003 11.2838 20.5951 11.6514 21.3746 11.845C21.8124 11.9531 22.2653 11.9862 22.7141 11.943C22.82 11.9334 22.9272 11.9353 23.0341 11.9362C23.0783 11.9362 23.1301 11.9401 23.1506 11.9887C23.1727 12.0434 23.1384 12.0847 23.1007 12.1222C23.021 12.1934 22.9266 12.2462 22.8242 12.2767C22.4914 12.3919 22.1461 12.4351 21.7963 12.4492C21.7387 12.4521 21.6802 12.4502 21.6216 12.4502Z" fill="#162D4C"/>
<path d="M19.2377 12.1055C19.5516 12.2869 19.8883 12.4254 20.239 12.5173C20.3263 12.5409 20.415 12.5593 20.5046 12.5724C20.5574 12.5794 20.5641 12.6018 20.559 12.6453C20.5489 12.7781 20.5193 12.9087 20.471 13.0328C20.2819 13.4728 20.0655 13.901 19.8835 14.3448C19.8076 14.5295 19.7292 14.7132 19.6915 14.9103C19.6473 15.1343 19.8025 15.2972 20.0284 15.2565C20.0892 15.2456 20.1075 15.2604 20.1187 15.3167C20.1353 15.4057 20.1442 15.4959 20.1452 15.5865C20.1471 15.6076 20.1422 15.6287 20.1313 15.6469C20.1204 15.6651 20.1039 15.6793 20.0844 15.6876C19.8332 15.8172 19.5942 15.7708 19.3766 15.6185C19.1459 15.4568 19.0566 15.2117 19.0431 14.9397C19.0252 14.6031 19.0697 14.2696 19.1132 13.9365C19.1695 13.509 19.2611 13.0866 19.3033 12.6565C19.3171 12.5164 19.2713 12.3826 19.2588 12.245C19.2537 12.2027 19.246 12.1602 19.2377 12.1055Z" fill="#162D4C"/>
<path d="M17.9748 9.0316L16.7588 9.20023C16.7626 9.16504 16.7908 9.15415 16.8087 9.13784C17.0265 8.94584 17.245 8.75448 17.4641 8.56376C17.4852 8.54552 17.505 8.50585 17.5412 8.54648L17.9748 9.0316Z" fill="#DCAA10"/>
</svg>
