<svg width="32" height="32" viewBox="0 0 32 32" fill="none" xmlns="http://www.w3.org/2000/svg">
<g clip-path="url(#clip0)">
<path fill-rule="evenodd" clip-rule="evenodd" d="M0 0H31.619V32H0V0Z" fill="#D94F00"/>
<path fill-rule="evenodd" clip-rule="evenodd" d="M17.9901 6.20508H26.0957V14.327H17.9901V6.20508ZM8.19093 18.4353V19.2298H9.58794V23.4334H10.5512V19.1977H11.8519V18.4032L8.19093 18.4358V18.4353ZM7.47148 19.4203V18.6258C6.69869 18.2764 5.80998 18.1708 4.90004 18.6258C3.4078 19.293 3.35446 22.5969 4.84725 23.2429C5.7044 23.6772 7.49216 23.4758 7.67229 23.0943V20.4788H5.89487V21.1673H6.67746V22.5441C4.10603 23.7936 3.62984 17.7893 7.47148 19.4203ZM13.4187 21.1248H14.339C15.1009 21.1569 15.3022 22.5969 14.3074 22.586H13.4187V21.1248ZM13.4187 19.1025H14.339C15.1009 19.2402 14.826 20.3732 14.3074 20.4048H13.4187V19.1025ZM12.4663 18.3297V23.3909H14.9953C16.2862 22.9251 16.3395 20.924 14.9953 20.7117C16.2334 20.5746 16.2971 18.2976 14.1594 18.2976L12.4663 18.3297ZM16.9316 19.7485V20.5C17.6086 20.3096 19.0797 19.78 18.942 20.9028C17.6511 20.8179 16.7727 21.0508 16.6247 21.8551C16.3814 23.5923 18.2437 23.7615 19.0269 22.9039V23.3169H19.9156V20.2671C19.6935 19.2821 18.2231 19.1553 16.9316 19.7485ZM17.6826 21.7077C17.884 21.4426 18.5294 21.453 18.9632 21.5803V22.2475C18.2546 23.0094 17.1118 22.6606 17.6832 21.7071L17.6826 21.7077ZM21.7572 20.6486C21.9901 20.3945 23.2282 19.9177 23.4187 20.6486V23.3381H24.413V20.4897C24.2013 19.3033 23.0688 19.0916 21.6935 19.8965V19.4519H20.752V23.3594H21.7463L21.7572 20.6486ZM27.5346 19.4094L26.2334 21.1564L27.6092 23.306L28.8048 23.2745L27.2919 21.2097L28.6568 19.441L27.5352 19.4094H27.5346ZM25.1542 18.1278H26.1382V23.306H25.1537V18.1283L25.1542 18.1278Z" fill="white"/>
<path fill-rule="evenodd" clip-rule="evenodd" d="M17.9902 6.20508H26.0958V14.327H17.9902V6.20508Z" fill="white"/>
</g>
<defs>
<clipPath id="clip0">
<rect width="31.619" height="32" fill="white"/>
</clipPath>
</defs>
</svg>
