<svg width="86" height="86" viewBox="0 0 86 86" fill="none" xmlns="http://www.w3.org/2000/svg">
<circle cx="43" cy="43" r="43" fill="#EBF1FC"/>
<path d="M28.3913 20.0435C26.0853 20.0435 24.2174 21.9113 24.2174 24.2174V65.9565H53.4348V24.2174C53.4348 21.9113 55.3027 20.0435 57.6087 20.0435H28.3913ZM47.1739 40.913H30.4783V28.3913H47.1739V40.913Z" fill="#3977DE"/>
<path d="M24.2174 67H53.4348C54.012 67 54.4782 66.5338 54.4782 65.9565V58.6522H61.7826C62.3599 58.6522 62.8261 58.186 62.8261 57.6087V24.2174C62.8261 21.3407 60.4854 19 57.6087 19H28.3913C25.5146 19 23.1739 21.3407 23.1739 24.2174V65.9565C23.1739 66.5338 23.6401 67 24.2174 67ZM54.4782 24.2174C54.4782 22.4917 55.883 21.087 57.6087 21.087C59.3344 21.087 60.7391 22.4917 60.7391 24.2174V56.5652H54.4782V24.2174ZM25.2608 24.2174C25.2608 22.4917 26.6656 21.087 28.3913 21.087H53.4368C52.7805 21.9592 52.3913 23.0435 52.3913 24.2174V64.913H25.2608V24.2174Z" fill="#3977DE"/>
<path d="M47.1739 27.3478H30.4782C29.901 27.3478 29.4348 27.8155 29.4348 28.3913V40.913C29.4348 41.4887 29.901 41.9565 30.4782 41.9565H47.1739C47.7512 41.9565 48.2174 41.4887 48.2174 40.913V28.3913C48.2174 27.8155 47.7512 27.3478 47.1739 27.3478ZM46.1304 39.8695H31.5217V29.4347H46.1304V39.8695Z" fill="#3977DE"/>
<path d="M47.1739 46.1305H30.4782C29.901 46.1305 29.4348 46.5967 29.4348 47.174C29.4348 47.7513 29.901 48.2175 30.4782 48.2175H47.1739C47.7512 48.2175 48.2174 47.7513 48.2174 47.174C48.2174 46.5967 47.7512 46.1305 47.1739 46.1305Z" fill="#1B2A4E"/>
<path d="M47.1739 52.3914H30.4782C29.901 52.3914 29.4348 52.8576 29.4348 53.4348C29.4348 54.0121 29.901 54.4783 30.4782 54.4783H47.1739C47.7512 54.4783 48.2174 54.0121 48.2174 53.4348C48.2174 52.8576 47.7512 52.3914 47.1739 52.3914Z" fill="#1B2A4E"/>
<path d="M47.1739 58.6522H30.4782C29.901 58.6522 29.4348 59.1184 29.4348 59.6957C29.4348 60.273 29.901 60.7392 30.4782 60.7392H47.1739C47.7512 60.7392 48.2174 60.273 48.2174 59.6957C48.2174 59.1184 47.7512 58.6522 47.1739 58.6522Z" fill="#1B2A4E"/>
</svg>
