<svg width="70" height="70" viewBox="0 0 70 70" fill="none" xmlns="http://www.w3.org/2000/svg">
<circle cx="35" cy="35" r="35" fill="#EBF1FC"/>
<g clip-path="url(#clip0)">
<path d="M23.1083 16.3145C21.2313 16.3145 19.7109 17.8348 19.7109 19.7118V53.6855H43.4925V19.7118C43.4925 17.8348 45.0129 16.3145 46.8899 16.3145H23.1083ZM38.3965 33.3013H24.807V23.1092H38.3965V33.3013Z" fill="#3977DE"/>
<path d="M19.7107 54.5351H43.4923C43.9621 54.5351 44.3416 54.1556 44.3416 53.6858V47.7404H50.287C50.7569 47.7404 51.1364 47.3609 51.1364 46.891V19.712C51.1364 17.3705 49.2311 15.4653 46.8896 15.4653H23.108C20.7665 15.4653 18.8613 17.3705 18.8613 19.712V53.6858C18.8613 54.1556 19.2408 54.5351 19.7107 54.5351ZM44.3416 19.712C44.3416 18.3074 45.485 17.164 46.8896 17.164C48.2943 17.164 49.4377 18.3074 49.4377 19.712V46.0417H44.3416V19.712ZM20.56 19.712C20.56 18.3074 21.7034 17.164 23.108 17.164H43.4939C42.9598 17.874 42.6429 18.7565 42.6429 19.712V52.8364H20.56V19.712Z" fill="#3977DE"/>
<path d="M38.3959 22.2603H24.8064C24.3365 22.2603 23.957 22.641 23.957 23.1096V33.3017C23.957 33.7703 24.3365 34.1511 24.8064 34.1511H38.3959C38.8658 34.1511 39.2452 33.7703 39.2452 33.3017V23.1096C39.2452 22.641 38.8658 22.2603 38.3959 22.2603ZM37.5465 32.4524H25.6557V23.9589H37.5465V32.4524Z" fill="#3977DE"/>
<path d="M38.3959 37.5483H24.8064C24.3365 37.5483 23.957 37.9278 23.957 38.3977C23.957 38.8676 24.3365 39.247 24.8064 39.247H38.3959C38.8658 39.247 39.2452 38.8676 39.2452 38.3977C39.2452 37.9278 38.8658 37.5483 38.3959 37.5483Z" fill="#1B2A4E"/>
<path d="M38.3959 42.6445H24.8064C24.3365 42.6445 23.957 43.024 23.957 43.4939C23.957 43.9638 24.3365 44.3432 24.8064 44.3432H38.3959C38.8658 44.3432 39.2452 43.9638 39.2452 43.4939C39.2452 43.024 38.8658 42.6445 38.3959 42.6445Z" fill="#1B2A4E"/>
<path d="M38.3959 47.7402H24.8064C24.3365 47.7402 23.957 48.1197 23.957 48.5896C23.957 49.0595 24.3365 49.4389 24.8064 49.4389H38.3959C38.8658 49.4389 39.2452 49.0595 39.2452 48.5896C39.2452 48.1197 38.8658 47.7402 38.3959 47.7402Z" fill="#1B2A4E"/>
</g>
<defs>
<clipPath id="clip0">
<rect width="39.0698" height="39.0698" fill="white" transform="translate(15.4648 15.4653)"/>
</clipPath>
</defs>
</svg>
