<svg width="16" height="16" viewBox="0 0 16 16" fill="none" xmlns="http://www.w3.org/2000/svg">
<path d="M7.33301 1.3335C10.645 1.3335 13.333 4.0215 13.333 7.3335C13.333 10.6455 10.645 13.3335 7.33301 13.3335C4.02101 13.3335 1.33301 10.6455 1.33301 7.3335C1.33301 4.0215 4.02101 1.3335 7.33301 1.3335ZM7.33301 12.0002C9.91101 12.0002 11.9997 9.9115 11.9997 7.3335C11.9997 4.75483 9.91101 2.66683 7.33301 2.66683C4.75434 2.66683 2.66634 4.75483 2.66634 7.3335C2.66634 9.9115 4.75434 12.0002 7.33301 12.0002ZM12.9897 12.0475L14.8757 13.9328L13.9323 14.8762L12.047 12.9902L12.9897 12.0475Z" fill="#677189"/>
</svg>
