<svg width="40" height="40" viewBox="0 0 40 40" fill="none" xmlns="http://www.w3.org/2000/svg">
<circle cx="20" cy="20" r="20" fill="#EBF1FC"/>
<path d="M19 10L26.298 12.28C26.5015 12.3435 26.6794 12.4705 26.8057 12.6423C26.932 12.8141 27.0001 13.0218 27 13.235V15H29C29.2652 15 29.5196 15.1054 29.7071 15.2929C29.8946 15.4804 30 15.7348 30 16V18H17V16C17 15.7348 17.1054 15.4804 17.2929 15.2929C17.4804 15.1054 17.7348 15 18 15H25V13.97L19 12.094L13 13.97V21.374C12.9999 21.9862 13.1402 22.5903 13.4104 23.1397C13.6805 23.6892 14.0731 24.1692 14.558 24.543L14.747 24.679L19 27.58L22.782 25H18C17.7348 25 17.4804 24.8946 17.2929 24.7071C17.1054 24.5196 17 24.2652 17 24V20H30V24C30 24.2652 29.8946 24.5196 29.7071 24.7071C29.5196 24.8946 29.2652 25 29 25L25.78 25.001C25.393 25.511 24.923 25.961 24.38 26.331L19 30L13.62 26.332C12.8125 25.7815 12.1518 25.042 11.6951 24.1779C11.2385 23.3138 10.9999 22.3513 11 21.374V13.235C11.0001 13.0219 11.0683 12.8145 11.1946 12.6429C11.3208 12.4713 11.4986 12.3445 11.702 12.281L19 10Z" fill="#3977DE"/>
</svg>
