<svg width="32" height="15" viewBox="0 0 32 15" fill="none" xmlns="http://www.w3.org/2000/svg">
<g clip-path="url(#clip0)">
<path d="M0.499748 12.369L0.265488 13.5871C0.234253 13.6808 0.234253 13.7589 0.234253 13.8526C0.234253 14.1181 0.390427 14.243 0.60907 14.243C0.890183 14.243 1.09321 14.0556 1.1713 13.5871L1.42117 12.369H1.67105L1.43679 13.5871C1.32747 14.1962 1.03074 14.4461 0.593453 14.4461C0.234253 14.4461 -0.015625 14.2587 -0.015625 13.837L-7.62753e-06 13.5403L0.218636 12.3533H0.499748V12.369ZM2.03025 14.4461L2.21766 13.3997C2.26451 13.2279 2.26451 13.0874 2.29575 12.9624H2.51439L2.46754 13.2435C2.59248 13.0249 2.7955 12.9156 3.01415 12.9156C3.18594 12.9156 3.37334 13.0249 3.37334 13.3216L3.35773 13.5715L3.18594 14.4148H2.92044L3.07661 13.5715L3.09223 13.3685C3.09223 13.2279 3.02976 13.1186 2.85797 13.1186C2.68618 13.1186 2.42069 13.3216 2.35822 13.6964L2.21766 14.4148H2.03025V14.4461ZM3.91995 14.4461L4.20107 12.9624H4.46656L4.18545 14.4461H3.91995ZM4.24792 12.5408C4.24792 12.4627 4.34162 12.369 4.41971 12.369C4.51341 12.369 4.57588 12.4314 4.57588 12.5251C4.57588 12.6345 4.51341 12.6969 4.40409 12.6969C4.31039 12.6969 4.24792 12.6345 4.24792 12.5408ZM5.55978 12.572L5.49731 12.9624H5.84089L5.79404 13.1498H5.45046L5.32552 13.8682C5.29428 13.9619 5.29428 14.0244 5.29428 14.1181C5.29428 14.1962 5.34113 14.243 5.43484 14.243H5.54416L5.51292 14.4461L5.32552 14.4617C5.10687 14.4617 5.01317 14.3367 5.01317 14.1806L5.02879 13.8995L5.18496 13.1498H4.96632L5.01317 12.9624H5.23181L5.29428 12.6345L5.55978 12.572ZM7.1996 14.3524C7.09028 14.4148 6.90287 14.4617 6.71546 14.4617C6.32503 14.4617 6.15324 14.1962 6.15324 13.8682C6.15324 13.4309 6.4812 12.9156 6.94972 12.9156C7.23084 12.9156 7.38701 13.0874 7.38701 13.2904C7.38701 13.6808 6.94972 13.7901 6.40312 13.7589C6.3875 13.837 6.40312 13.9619 6.43435 14.0556C6.49682 14.1806 6.60614 14.243 6.76231 14.243C6.93411 14.243 7.05904 14.1806 7.15275 14.1337L7.1996 14.3524ZM6.90287 13.1186C6.66861 13.1186 6.49682 13.3529 6.43435 13.5715C6.82478 13.5715 7.12151 13.5246 7.12151 13.2904C7.12151 13.1811 7.04343 13.1186 6.90287 13.1186ZM9.3548 12.2596L9.02683 13.9619C8.9956 14.1181 8.96436 14.2899 8.96436 14.4148H8.71449L8.76134 14.1337C8.6364 14.3524 8.43337 14.4617 8.24597 14.4617C7.94923 14.4617 7.80868 14.2274 7.80868 13.9151C7.80868 13.3997 8.19911 12.9156 8.71449 12.9156C8.80819 12.9156 8.91751 12.9312 8.97998 12.9624L9.10492 12.2596H9.3548ZM8.93313 13.1811C8.88628 13.1342 8.80819 13.1186 8.69887 13.1186C8.35529 13.1186 8.05856 13.4778 8.05856 13.8682C8.05856 14.0556 8.13664 14.243 8.35529 14.243C8.5427 14.243 8.79257 14.0244 8.85504 13.6964L8.93313 13.1811ZM10.8697 12.4002C11.0102 12.369 11.1664 12.3533 11.307 12.3533C11.5256 12.3533 11.6818 12.4002 11.7911 12.4939C11.8848 12.5876 11.9473 12.6969 11.9473 12.8219C11.9473 13.0874 11.7286 13.2904 11.51 13.3529C11.713 13.4153 11.8536 13.5715 11.8536 13.8058C11.8536 14.0244 11.7443 14.1806 11.6193 14.2899C11.4631 14.4148 11.2289 14.4617 10.9478 14.4617L10.5105 14.4461L10.8697 12.4002ZM10.7916 14.2274L11.0102 14.243C11.307 14.243 11.6037 14.1181 11.6037 13.7901C11.6037 13.5403 11.4007 13.4309 11.1664 13.4309H10.9634L10.7916 14.2274ZM10.979 13.2435H11.182C11.4631 13.2435 11.713 13.0874 11.713 12.8531C11.713 12.6501 11.5568 12.572 11.3382 12.572L11.1196 12.5876L10.979 13.2435ZM13.3216 14.4461L13.3685 14.0713C13.2123 14.368 12.9936 14.4773 12.7906 14.4773C12.5407 14.4773 12.3846 14.2587 12.3846 14.0088C12.3846 13.4778 12.7594 12.9624 13.3997 12.9624C13.5403 12.9624 13.712 12.978 13.8057 13.0249L13.6496 13.7901C13.6027 14.0556 13.5871 14.3055 13.5871 14.4617H13.3216V14.4461ZM13.4934 13.1342L13.3216 13.1186C12.9468 13.1186 12.6188 13.509 12.6188 13.9151C12.6188 14.0869 12.6813 14.243 12.8843 14.243C13.103 14.243 13.3372 13.9619 13.3997 13.5715L13.4934 13.1342ZM14.2118 14.4461L14.4148 13.3997L14.4773 12.9624H14.6959L14.6491 13.2435C14.774 13.0249 14.9771 12.9156 15.1957 12.9156C15.3675 12.9156 15.5705 13.0249 15.5705 13.3216L15.5393 13.5715L15.3675 14.4148H15.102L15.2582 13.5715L15.2738 13.3685C15.2738 13.2279 15.2113 13.1186 15.0395 13.1186C14.8677 13.1186 14.6022 13.3216 14.5398 13.6964L14.4148 14.4148H14.2118V14.4461ZM16.1327 14.4461L16.5388 12.2909H16.7887L16.5232 13.634C16.57 13.5871 16.6325 13.5246 16.6481 13.4778L17.1791 12.9624H17.4758L16.8355 13.5715L17.2572 14.4461H16.9761L16.6325 13.7277L16.4295 13.8995L16.3201 14.4617H16.1327V14.4461ZM18.6628 14.4461L18.897 13.1498H18.7096L18.7408 12.9624H18.9439L18.9595 12.8687C19.0063 12.6501 19.0688 12.4783 19.2094 12.3533C19.2874 12.2596 19.428 12.2128 19.5529 12.2128C19.6623 12.2128 19.7247 12.244 19.756 12.2596L19.6779 12.4627C19.6466 12.4314 19.5998 12.4314 19.5373 12.4314C19.3343 12.4314 19.225 12.6345 19.1781 12.8687V12.9624H19.5061L19.4592 13.1498H19.1469L18.897 14.4461H18.6628ZM21.1615 13.5403C21.1615 14.0088 20.8336 14.4773 20.3338 14.4773C19.9746 14.4773 19.7716 14.1962 19.7716 13.8682C19.7716 13.3997 20.1152 12.9312 20.5993 12.9312C20.9897 12.9156 21.1615 13.2279 21.1615 13.5403ZM20.0371 13.8526C20.0371 14.0869 20.162 14.2587 20.3807 14.2587C20.693 14.2587 20.9117 13.8682 20.9117 13.5403C20.9117 13.3685 20.8179 13.1342 20.5525 13.1342C20.2557 13.1186 20.0371 13.509 20.0371 13.8526ZM21.6301 14.4461L21.8018 13.4778C21.8487 13.2904 21.8643 13.0874 21.8799 12.9624H22.0986L22.0673 13.2904C22.1454 13.0874 22.3172 12.9312 22.5202 12.9312H22.5827L22.5359 13.1811H22.4734C22.2547 13.1811 22.0673 13.4309 21.9893 13.7901L21.8643 14.4461H21.6301ZM24.1288 13.7901L23.8009 14.4461H23.5354L24.613 12.4002H24.9097L25.2064 14.4461H24.9409L24.8472 13.7901H24.1288ZM24.8316 13.5715L24.7379 12.978C24.7223 12.8687 24.7223 12.7125 24.6911 12.6032L24.5193 12.978L24.2225 13.5715H24.8316ZM25.7218 14.4461L25.9561 13.1498H25.7687L25.8155 12.9624H26.0029L26.0342 12.8687C26.0654 12.6501 26.1435 12.4783 26.2684 12.3533C26.3465 12.2596 26.4871 12.2128 26.612 12.2128C26.7213 12.2128 26.7838 12.244 26.815 12.2596L26.7526 12.4627C26.7057 12.4314 26.6588 12.4314 26.5964 12.4314C26.3934 12.4314 26.284 12.6345 26.2528 12.8687L26.2216 12.9312H26.5495L26.5027 13.1342H26.1747L25.9404 14.4148H25.7218V14.4461ZM26.8306 14.4461L27.0024 13.4778L27.0961 12.9624H27.3148L27.2679 13.2904C27.3616 13.0874 27.5334 12.9312 27.7208 12.9312H27.7989L27.7521 13.1811H27.6896C27.471 13.1811 27.2679 13.4309 27.2055 13.7901L27.0805 14.4461H26.8306ZM28.08 14.4461L28.3611 12.9624H28.6266L28.3455 14.4461H28.08ZM28.408 12.5408C28.408 12.4627 28.4705 12.369 28.5798 12.369C28.6579 12.369 28.736 12.4314 28.736 12.5251C28.736 12.6345 28.6579 12.6969 28.5485 12.6969C28.4705 12.6969 28.408 12.6345 28.408 12.5408ZM30.0634 14.368C29.9697 14.4148 29.8136 14.4617 29.6261 14.4617C29.2357 14.4617 29.0639 14.1962 29.0639 13.8995C29.0639 13.3997 29.4231 12.9312 29.9541 12.9312C30.0791 12.9312 30.2196 12.978 30.2508 13.0093L30.1884 13.1967C30.1259 13.1811 30.0634 13.1342 29.9541 13.1342C29.5637 13.1342 29.3138 13.509 29.3138 13.8526C29.3138 14.0869 29.4544 14.243 29.6886 14.243C29.8448 14.243 29.9541 14.1962 30.0322 14.1493L30.0634 14.368ZM31.5471 14.4461L31.5783 14.0713C31.4378 14.368 31.2191 14.4773 31.0161 14.4773C30.7506 14.4773 30.61 14.2587 30.61 14.0088C30.61 13.4778 30.9692 12.9624 31.6252 12.9624C31.7657 12.9624 31.9375 12.978 32.0156 13.0249L31.875 13.7901C31.8282 14.0556 31.797 14.3055 31.797 14.4617H31.5471V14.4461ZM31.7189 13.1342L31.5471 13.1186C31.1723 13.1186 30.8443 13.509 30.8443 13.9151C30.8443 14.0869 30.9068 14.243 31.1098 14.243C31.3284 14.243 31.5627 13.9619 31.6252 13.5715L31.7189 13.1342ZM6.34065 3.62323L5.4036 7.96486C5.12249 8.9019 4.60712 9.55783 3.5139 9.60468C2.57686 9.60468 2.20204 8.97999 2.4363 7.66813L3.26402 3.62323H1.88969L0.937035 8.26159C0.765244 10.042 1.81161 10.5417 3.40458 10.4949C4.91946 10.448 5.96583 9.76086 6.55929 8.38653L7.60565 3.62323H6.34065ZM17.9131 5.80966L18.4597 8.05857H16.4295L17.9131 5.80966ZM18.3348 3.62323L13.7277 10.3387H14.9771L15.8516 9.04246H18.7252L19.0063 10.3387H20.49L18.8502 3.62323H18.3348ZM22.817 10.3856H25.4563C27.8302 10.2762 28.3455 9.19863 27.5803 7.40264L24.6911 1.76476L22.817 10.3856ZM29.2982 0C26.9243 0.109322 26.4246 1.20254 27.1898 2.98292L30.0634 8.62079L31.9375 0H29.2982ZM9.41727 9.49536L9.90141 7.23084H10.448C11.2445 7.23084 11.916 7.51196 11.916 8.26159C11.916 9.1674 11.0259 9.54222 10.0263 9.54222L9.41727 9.49536ZM10.4636 4.48219H11.1196C11.838 4.48219 12.2752 4.65398 12.2752 5.23182C12.2752 5.91898 11.6193 6.35627 10.6354 6.35627H10.0888L10.4636 4.48219ZM9.41727 3.62323L9.30795 3.63885L7.918 10.3699H10.5886C11.4944 10.3699 12.0098 10.1201 12.3533 9.91703C12.8999 9.55783 13.2904 8.97999 13.4309 8.27721C13.6027 7.32455 12.9468 6.82479 12.1347 6.74671C12.9624 6.5593 13.6652 5.95022 13.712 5.07565C13.8214 3.62323 12.1815 3.62323 12.1815 3.62323H9.41727Z" fill="#D71920"/>
</g>
<defs>
<clipPath id="clip0">
<rect width="32" height="14.4617" fill="white"/>
</clipPath>
</defs>
</svg>
