<svg width="20" height="20" viewBox="0 0 20 20" fill="none" xmlns="http://www.w3.org/2000/svg">
<path fill-rule="evenodd" clip-rule="evenodd" d="M7.05488 4.3635C6.86899 4.61456 6.89034 4.97269 7.12519 5.19996C7.37519 5.44996 7.78352 5.44996 8.03352 5.19996L9.35852 3.86663V7.31663H10.6419V3.86663L11.9669 5.19996L12.0387 5.26194C12.2898 5.44789 12.6479 5.42723 12.8752 5.19996C13.0002 5.07496 13.0669 4.90829 13.0669 4.74163C13.0669 4.58329 13.0002 4.41663 12.8752 4.29163L10.4502 1.85829L10.3746 1.79036C10.2669 1.70929 10.1335 1.66663 10.0002 1.66663C9.82519 1.66663 9.66685 1.73329 9.54185 1.85829L7.11685 4.29163L7.05488 4.3635ZM5.19266 7.32089C3.23161 7.41352 1.66669 9.06316 1.66669 11.0728V15.2104L1.67072 15.3875C1.76177 17.3832 3.38359 18.9835 5.37502 18.9835H14.6334L14.8074 18.9794C16.7684 18.8867 18.3334 17.2369 18.3334 15.2189V11.0898L18.3293 10.912C18.2378 8.90901 16.6084 7.31679 14.625 7.31679H10.6417V12.404L10.6357 12.4934C10.5927 12.8146 10.3209 13.0569 10 13.0569C9.64169 13.0569 9.35835 12.7686 9.35835 12.404V7.31679H5.36669L5.19266 7.32089Z" fill="#3977DE"/>
</svg>
